<?xml version="1.0" encoding="UTF-8"?>
<svg version="1.1" xmlns="http://www.w3.org/2000/svg" width="683" height="345">
<path d="M0 0 C225.39 0 450.78 0 683 0 C683 113.85 683 227.7 683 345 C457.61 345 232.22 345 0 345 C0 231.15 0 117.3 0 0 Z " fill="#FDFDFD" transform="translate(0,0)"/>
<path d="M0 0 C2.97650985 2.00779119 4.6481115 4.64667428 6.5234375 7.63671875 C6.9148291 8.25893311 7.3062207 8.88114746 7.70947266 9.5222168 C19.67636844 29.15333187 23.03988858 51.67641742 17.984375 74.1015625 C17.70851562 75.20628906 17.43265625 76.31101562 17.1484375 77.44921875 C16.95507812 78.23425781 16.76171875 79.01929688 16.5625 79.828125 C10.73067867 99.78507202 -3.0204487 117.76332697 -21.13671875 128.0078125 C-22.03261719 128.48347656 -22.92851562 128.95914063 -23.8515625 129.44921875 C-24.84027344 129.97644531 -25.82898438 130.50367188 -26.84765625 131.046875 C-46.76276706 140.96786655 -70.83110979 141.14934151 -91.7890625 134.32421875 C-101.0766255 130.85425342 -109.2031955 125.75035046 -116.8515625 119.44921875 C-115.66044501 115.87586628 -114.41799942 115.03205113 -111.4765625 112.76171875 C-110.28933594 111.82779297 -110.28933594 111.82779297 -109.078125 110.875 C-106.8515625 109.44921875 -106.8515625 109.44921875 -103.8515625 109.44921875 C-102.8469078 110.44454229 -101.84819741 111.44586495 -100.8515625 112.44921875 C-85.01341376 122.4057736 -67.29776754 126.29410957 -48.7265625 122.7578125 C-29.72378874 118.10446934 -14.21545063 107.21572835 -3.6015625 90.69921875 C5.30008409 75.05314912 8.02515309 55.70416229 4.39453125 38.0390625 C2.65952134 31.78622288 0.21811165 26.15004217 -2.8515625 20.44921875 C-2.8515625 19.78921875 -2.8515625 19.12921875 -2.8515625 18.44921875 C-3.8828125 19.00609375 -4.9140625 19.56296875 -5.9765625 20.13671875 C-6.55664062 20.44996094 -7.13671875 20.76320312 -7.734375 21.0859375 C-8.78238281 21.76076172 -8.78238281 21.76076172 -9.8515625 22.44921875 C-10.89441406 23.06539062 -11.93726563 23.6815625 -13.01171875 24.31640625 C-16.07337984 26.92208549 -16.41244852 29.26854139 -16.83984375 33.1953125 C-16.97625389 35.42422768 -17.08340124 37.65509056 -17.1640625 39.88671875 C-17.2833489 42.11468084 -17.40438712 44.34254995 -17.52734375 46.5703125 C-17.56770752 47.55443115 -17.60807129 48.5385498 -17.6496582 49.55249023 C-17.85988478 52.56861888 -18.3366881 55.47166873 -18.8515625 58.44921875 C-18.9988835 60.88547156 -19.12195032 63.32325867 -19.2265625 65.76171875 C-19.55143279 71.78600558 -20.21628614 77.68853837 -21.2265625 83.63671875 C-21.3404834 84.3428833 -21.4544043 85.04904785 -21.57177734 85.77661133 C-22.62654442 91.62571022 -24.15001164 95.16437422 -28.9140625 98.76171875 C-33.48798895 101.10164323 -37.83546519 101.41832565 -42.8515625 100.44921875 C-52.60332607 96.45431024 -60.22777231 86.28773603 -67.375 78.80859375 C-69.81494146 76.36470124 -69.81494146 76.36470124 -72.78125 74.40625 C-80.41852655 68.84542132 -80.41852655 68.84542132 -81.25244141 64.23095703 C-81.44411843 58.89291265 -80.73864085 53.7030118 -79.8515625 48.44921875 C-75.91941949 50.03861301 -73.52135904 52.61264377 -70.6015625 55.63671875 C-67.49962223 58.8417582 -64.38756816 61.88682473 -61.00390625 64.79296875 C-55.89569684 69.20680554 -51.25627235 74.05733425 -46.58789062 78.92773438 C-45.91822266 79.61158203 -45.24855469 80.29542969 -44.55859375 81 C-43.9653833 81.61528564 -43.37217285 82.23057129 -42.76098633 82.86450195 C-40.58309798 84.67202954 -38.48383968 85.45304004 -35.8515625 86.44921875 C-35.80526199 85.64457184 -35.75896149 84.83992493 -35.71125793 84.01089478 C-35.26149908 76.38579985 -34.75244913 68.7679965 -34.17821217 61.15134621 C-33.8850913 57.23609381 -33.6142589 53.32203649 -33.39575195 49.40185547 C-33.18355046 45.61004174 -32.91099687 41.82678688 -32.5980587 38.04200363 C-32.4896551 36.60594471 -32.40220027 35.16812853 -32.33722878 33.72945023 C-32.04642777 27.54498446 -31.68591816 21.82453689 -26.93251038 17.38020325 C-23.74555856 14.7766207 -20.34625319 12.61539708 -16.8515625 10.44921875 C-15.48804266 9.42707648 -14.13668919 8.38807825 -12.80859375 7.3203125 C-11.77089844 6.51722656 -10.73320312 5.71414062 -9.6640625 4.88671875 C-9.11943359 4.46326172 -8.57480469 4.03980469 -8.01367188 3.60351562 C-2.41817847 -0.71933157 -2.41817847 -0.71933157 0 0 Z " fill="#0382F6" transform="translate(224.8515625,132.55078125)"/>
<path d="M0 0 C1.8125 1.328125 1.8125 1.328125 3 2.75 C3 4.07 3 5.39 3 6.75 C1.20703125 8.48828125 1.20703125 8.48828125 -1.1875 10.0625 C-1.96480469 10.59488281 -2.74210938 11.12726563 -3.54296875 11.67578125 C-6.55972295 12.99471194 -7.9142306 12.79379063 -11 11.75 C-11.94875 11.028125 -12.8975 10.30625 -13.875 9.5625 C-17.47128955 6.83948164 -21.40014491 5.16443628 -25.5625 3.5 C-26.19978027 3.2419458 -26.83706055 2.9838916 -27.49365234 2.71801758 C-40.84446285 -2.47742215 -59.76676503 -2.61530297 -73.1953125 2.49609375 C-74.58363281 3.11677734 -74.58363281 3.11677734 -76 3.75 C-77.51207031 4.38615234 -77.51207031 4.38615234 -79.0546875 5.03515625 C-96.36449318 12.94128887 -108.38675359 26.65089613 -115.25 44.1875 C-121.50779946 62.59586007 -120.40825819 82.23666665 -112 99.75 C-110.71863513 101.45694453 -109.39832021 103.13746903 -108 104.75 C-107.24074219 104.1725 -106.48148438 103.595 -105.69921875 103 C-104.70535156 102.2575 -103.71148437 101.515 -102.6875 100.75 C-101.70136719 100.0075 -100.71523437 99.265 -99.69921875 98.5 C-97 96.75 -97 96.75 -94 96.75 C-94.02175293 95.92169678 -94.04350586 95.09339355 -94.06591797 94.23999023 C-94.21602331 83.64469761 -93.417423 73.22818465 -92.40087891 62.6862793 C-92.12318984 59.79364389 -91.85975655 56.89994456 -91.59765625 54.00585938 C-91.42271653 52.14054588 -91.24696439 50.27530837 -91.0703125 48.41015625 C-90.99313995 47.55792984 -90.91596741 46.70570343 -90.8364563 45.82765198 C-90.02061011 37.54106203 -89.04897529 30.79897529 -83 24.75 C-80.00925675 22.48116029 -76.85324274 22.26546515 -73.12792969 22.37475586 C-65.89500706 23.6502265 -60.34227449 30.05509182 -55.5 35.125 C-54.18676297 36.4705748 -52.87168113 37.81435179 -51.5546875 39.15625 C-50.9369043 39.78660156 -50.31912109 40.41695312 -49.68261719 41.06640625 C-47.73766798 43.01248427 -45.71971984 44.84154375 -43.625 46.625 C-42.74714844 47.38876953 -42.74714844 47.38876953 -41.8515625 48.16796875 C-40.42967505 49.38287259 -38.98181879 50.56743571 -37.5234375 51.73828125 C-31.31828427 57.14617795 -31.31828427 57.14617795 -30.3984375 61.78125 C-30.37571468 64.8412563 -30.57893881 67.72093735 -31 70.75 C-31.165 71.9875 -31.33 73.225 -31.5 74.5 C-31.665 75.2425 -31.83 75.985 -32 76.75 C-36.78562102 74.26255857 -40.11075756 70.83013237 -43.8125 67 C-48.07408759 62.6589731 -52.34577062 58.46231898 -56.99609375 54.53515625 C-60.66241815 51.2690544 -64.05318364 47.7127436 -67.484375 44.203125 C-69.87155061 41.76011523 -69.87155061 41.76011523 -72.328125 40.046875 C-72.87984375 39.61890625 -73.4315625 39.1909375 -74 38.75 C-74 38.09 -74 37.43 -74 36.75 C-74.66 36.75 -75.32 36.75 -76 36.75 C-75.97164062 37.94238281 -75.94328125 39.13476562 -75.9140625 40.36328125 C-75.91662531 46.93048696 -76.6793102 53.41400968 -77.375 59.9375 C-77.65442268 62.60785861 -77.93096562 65.27851122 -78.20703125 67.94921875 C-78.27585007 68.61118256 -78.34466888 69.27314636 -78.41557312 69.95516968 C-78.84262149 74.09868531 -79.22656985 78.24364143 -79.57421875 82.39453125 C-79.65816895 83.39137939 -79.74211914 84.38822754 -79.82861328 85.4152832 C-79.98003982 87.25057921 -80.1259116 89.08634552 -80.26513672 90.92260742 C-81.19735011 102.0795566 -81.19735011 102.0795566 -84.68774414 105.31396484 C-86.90553054 107.02974269 -89.1763684 108.61817903 -91.5 110.1875 C-92.71925171 111.03465576 -92.71925171 111.03465576 -93.96313477 111.89892578 C-95.57318872 113.0166306 -97.18711749 114.12877777 -98.80517578 115.23486328 C-100.6665297 116.51979792 -102.49507388 117.83255902 -104.30859375 119.18359375 C-105.17613281 119.82425781 -106.04367188 120.46492187 -106.9375 121.125 C-107.66839844 121.66898438 -108.39929688 122.21296875 -109.15234375 122.7734375 C-110.06693359 123.25683594 -110.06693359 123.25683594 -111 123.75 C-117.15701679 121.69766107 -120.99058702 113.27973784 -124 107.75 C-135.00412908 84.13255658 -135.86152504 60.15586611 -127.15625 35.58984375 C-118.75600763 14.95816739 -102.29001254 -1.17379943 -82 -10.0625 C-80.00870538 -10.81511529 -78.00837072 -11.54421598 -76 -12.25 C-74.98164063 -12.641875 -73.96328125 -13.03375 -72.9140625 -13.4375 C-48.19843428 -21.89130158 -20.90260769 -14.4597724 0 0 Z " fill="#0480F5" transform="translate(213,120.25)"/>
<path d="M0 0 C4.95 0 9.9 0 15 0 C15.33 8.91 15.66 17.82 16 27 C17.65 25.35 19.3 23.7 21 22 C26.88251988 18.20904274 32.44560175 18.35644116 39.0625 19.6875 C46.95430594 21.95774554 50.77483942 26.55052735 54.8359375 33.5 C58.61161616 41.60884009 58.43013154 54.48026405 55.875 63.0625 C52.408825 71.35885405 47.27195291 76.49569995 39 80 C33.92675548 81.50566992 29.51111365 81.47719378 24.4375 79.875 C20.43121207 77.68975204 18.05949911 75.35798683 15 72 C15 74.64 15 77.28 15 80 C10.05 80 5.1 80 0 80 C0 53.6 0 27.2 0 0 Z " fill="#4B29ED" transform="translate(419,143)"/>
<path d="M0 0 C4.95 0 9.9 0 15 0 C18.08636145 3.13384394 19.80249967 5.22484695 21.82861328 8.93115234 C23.78681578 12.38963671 25.97991704 15.69728108 28.13305664 19.03662109 C29.98817571 21.91912727 31.82078865 24.81485875 33.6484375 27.71484375 C37.33337841 33.5453812 41.13607505 39.28651856 45 45 C46.32 46.98 47.64 48.96 49 51 C49.33 34.17 49.66 17.34 50 0 C54.95 0 59.9 0 65 0 C65 26.4 65 52.8 65 80 C60.38 80 55.76 80 51 80 C47.40038812 76.28790025 45.43835563 73.69641936 43 69.3125 C41.66114555 67.11007538 40.32128132 64.90826433 38.98046875 62.70703125 C38.32224121 61.5876416 37.66401367 60.46825195 36.98583984 59.31494141 C33.95039371 54.24790334 30.63219331 49.38343892 27.3125 44.5 C26.20178963 42.84551757 25.0935742 41.18935649 23.98828125 39.53125 C23.30052612 38.50354492 23.30052612 38.50354492 22.59887695 37.45507812 C20.34986504 34.00171673 18.18419756 30.49471609 16 27 C15.67 44.49 15.34 61.98 15 80 C10.05 80 5.1 80 0 80 C0 53.6 0 27.2 0 0 Z " fill="#4825EE" transform="translate(280,143)"/>
<path d="M0 0 C-0.04125 1.093125 -0.0825 2.18625 -0.125 3.3125 C-0.32074666 7.08892229 -0.32074666 7.08892229 2 10 C2.99 10 3.98 10 5 10 C6.13254738 16.72450009 7.15158711 23.17857986 7 30 C7.33 30.66 7.66 31.32 8 32 C8.07068244 33.83208873 8.08421041 35.66667684 8.0625 37.5 C8.05347656 38.4796875 8.04445312 39.459375 8.03515625 40.46875 C8.01775391 41.72171875 8.01775391 41.72171875 8 43 C8 44.95877655 8.06184651 46.91724179 8.125 48.875 C8.13704236 52.22879635 7.536529 54.02297506 6 57 C6.061875 57.969375 6.12375 58.93875 6.1875 59.9375 C6.34788276 64.92005762 4.20536967 69.20929778 2.3359375 73.73828125 C1.00661496 76.86265526 1.00661496 76.86265526 0.1640625 79.60546875 C-4.76740757 94.57077149 -19.55108983 106.85949949 -33 114 C-33.98871094 114.52722656 -34.97742188 115.05445313 -35.99609375 115.59765625 C-55.91120456 125.5186478 -79.97954729 125.70012276 -100.9375 118.875 C-110.225063 115.40503467 -118.351633 110.30113171 -126 104 C-124.80888251 100.42664753 -123.56643692 99.58283238 -120.625 97.3125 C-119.43777344 96.37857422 -119.43777344 96.37857422 -118.2265625 95.42578125 C-116 94 -116 94 -113 94 C-111.9953453 94.99532354 -110.99663491 95.9966462 -110 97 C-94.16185126 106.95655485 -76.44620504 110.84489082 -57.875 107.30859375 C-38.65852753 102.60292068 -22.86950207 91.52404267 -12.5 74.5625 C-11.02304809 72.00655267 -9.93676981 69.81030944 -9 67 C-8.34 66.67 -7.68 66.34 -7 66 C-6.09656316 64.11736119 -6.09656316 64.11736119 -5.375 61.9375 C-5.11460937 61.20402344 -4.85421875 60.47054687 -4.5859375 59.71484375 C-4.39257812 59.14894531 -4.19921875 58.58304688 -4 58 C-3.34 58 -2.68 58 -2 58 C-2 58.66 -2 59.32 -2 60 C-1.34 60 -0.68 60 0 60 C-0.33 59.113125 -0.66 58.22625 -1 57.3125 C-2.30189189 52.9999831 -2.42077117 50.2623135 -1 46 C-0.90191748 43.13541338 -0.85755611 40.30149634 -0.875 37.4375 C-0.88225098 36.22284058 -0.88225098 36.22284058 -0.88964844 34.98364258 C-0.62027731 23.09546987 -0.62027731 23.09546987 -6 13 C-6.37890625 10.99609375 -6.37890625 10.99609375 -6.5625 8.8125 C-6.7790625 6.9253125 -6.7790625 6.9253125 -7 5 C-7.99 4.34 -8.98 3.68 -10 3 C-10 2.34 -10 1.68 -10 1 C-6.78548731 -0.60725635 -3.56387464 -0.05748185 0 0 Z " fill="#039FEE" transform="translate(234,148)"/>
<path d="M0 0 C5.7341163 5.52127792 8.02667651 11.89397627 8.7890625 19.72265625 C8.7890625 22.36265625 8.7890625 25.00265625 8.7890625 27.72265625 C-4.7409375 27.72265625 -18.2709375 27.72265625 -32.2109375 27.72265625 C-29.90044711 36.20208732 -29.90044711 36.20208732 -24.2109375 40.72265625 C-21.14663974 42.25480513 -18.5943733 41.95204173 -15.2109375 41.72265625 C-12.58285182 40.46834263 -10.768956 39.46912034 -9.01953125 37.12890625 C-6.17404216 34.91643093 -3.54833764 35.43814065 -0.0234375 35.53515625 C1.88501953 35.57576172 1.88501953 35.57576172 3.83203125 35.6171875 C5.29576172 35.66939453 5.29576172 35.66939453 6.7890625 35.72265625 C6.05821849 42.21699167 3.56680031 45.43001442 -1.2109375 49.72265625 C-9.2389906 54.93044534 -17.5822144 55.86748129 -26.8984375 53.97265625 C-34.39619052 51.14331549 -39.84353278 47.54402352 -44.2109375 40.72265625 C-48.41316783 31.045167 -49.87828275 22.099692 -46.5234375 12.03515625 C-44.65246576 7.34773951 -42.46692659 3.57843281 -39.2109375 -0.27734375 C-38.5509375 -0.27734375 -37.8909375 -0.27734375 -37.2109375 -0.27734375 C-37.2109375 -0.93734375 -37.2109375 -1.59734375 -37.2109375 -2.27734375 C-24.44478319 -9.08807124 -11.68427726 -9.47310925 0 0 Z " fill="#4825EB" transform="translate(402.2109375,169.27734375)"/>
<path d="M0 0 C5.61 0 11.22 0 17 0 C19.97 5.61 22.94 11.22 26 17 C26.99 17 27.98 17 29 17 C29.63808594 15.85660156 30.27617188 14.71320313 30.93359375 13.53515625 C31.76814187 12.04422197 32.60278204 10.55333921 33.4375 9.0625 C33.85837891 8.30775391 34.27925781 7.55300781 34.71289062 6.77539062 C35.31713867 5.69741211 35.31713867 5.69741211 35.93359375 4.59765625 C36.30540771 3.93258057 36.67722168 3.26750488 37.06030273 2.58227539 C38 1 38 1 39 0 C41.69654854 -0.07319621 44.36691458 -0.09242537 47.0625 -0.0625 C47.82111328 -0.05798828 48.57972656 -0.05347656 49.36132812 -0.04882812 C51.24091871 -0.0370068 53.12046899 -0.01907078 55 0 C53.61122098 3.85400296 51.81045402 6.97541577 49.48828125 10.34375 C48.81345703 11.34277344 48.13863281 12.34179688 47.44335938 13.37109375 C46.01906301 15.46249867 44.58670871 17.54843791 43.14648438 19.62890625 C42.47552734 20.62792969 41.80457031 21.62695312 41.11328125 22.65625 C40.49235596 23.56181641 39.87143066 24.46738281 39.23168945 25.40039062 C37.75351831 28.52022537 37.89771329 29.77670193 39 33 C40.31609412 35.28763142 41.65300597 37.4443128 43.125 39.625 C43.93894052 40.86188808 44.75274076 42.09886848 45.56640625 43.3359375 C45.97391113 43.94920898 46.38141602 44.56248047 46.80126953 45.19433594 C48.57530556 47.86659062 50.3237121 50.55470097 52.0625 53.25 C52.63097656 54.12140625 53.19945312 54.9928125 53.78515625 55.890625 C55 58 55 58 55 60 C49.84560035 60.59703471 45.13953489 60.85393717 40 60 C36.54926686 57.22921427 34.89694208 53.94695152 33 50 C32.06911141 48.30884391 31.13211571 46.62102715 30.1875 44.9375 C29.80980469 44.20402344 29.43210937 43.47054687 29.04296875 42.71484375 C28.10554391 40.8311898 28.10554391 40.8311898 26 40 C25.61908203 41.25683594 25.61908203 41.25683594 25.23046875 42.5390625 C23.03908165 48.70277351 20.20962606 55.73846723 15 60 C10.10833885 61.64824965 5.0000833 60.83005335 0 60 C1.33579187 56.40985914 2.94027565 53.26987404 4.96875 50.0234375 C5.53980469 49.105625 6.11085938 48.1878125 6.69921875 47.2421875 C7.29347656 46.29601562 7.88773438 45.34984375 8.5 44.375 C9.09425781 43.42109375 9.68851563 42.4671875 10.30078125 41.484375 C12.49783704 37.96313435 14.69763549 34.45354676 17 31 C16.77441703 26.33526649 14.28570657 22.94493293 11.75 19.1875 C10.93338515 17.94675185 10.11697773 16.70586715 9.30078125 15.46484375 C8.90584473 14.8704248 8.5109082 14.27600586 8.10400391 13.66357422 C2 4.46572313 2 4.46572313 2 2 C1.34 2 0.68 2 0 2 C0 1.34 0 0.68 0 0 Z " fill="#4A27E9" transform="translate(552,163)"/>
<path d="M0 0 C1.1875 1.421875 1.1875 1.421875 1.1875 5.421875 C-0.60546875 7.16015625 -0.60546875 7.16015625 -3 8.734375 C-3.77730469 9.26675781 -4.55460937 9.79914063 -5.35546875 10.34765625 C-8.37222295 11.66658694 -9.7267306 11.46566563 -12.8125 10.421875 C-13.76125 9.7 -14.71 8.978125 -15.6875 8.234375 C-19.28378955 5.51135664 -23.21264491 3.83631128 -27.375 2.171875 C-28.01228027 1.9138208 -28.64956055 1.6557666 -29.30615234 1.38989258 C-42.65696285 -3.80554715 -61.57926503 -3.94342797 -75.0078125 1.16796875 C-76.39613281 1.78865234 -76.39613281 1.78865234 -77.8125 2.421875 C-79.32457031 3.05802734 -79.32457031 3.05802734 -80.8671875 3.70703125 C-96.27787952 10.74575699 -107.39105405 22.38220235 -114.8125 37.421875 C-115.1425 37.421875 -115.4725 37.421875 -115.8125 37.421875 C-115.8125 35.441875 -115.8125 33.461875 -115.8125 31.421875 C-115.1525 31.421875 -114.4925 31.421875 -113.8125 31.421875 C-113.8125 30.431875 -113.8125 29.441875 -113.8125 28.421875 C-112.8225 28.421875 -111.8325 28.421875 -110.8125 28.421875 C-110.8125 26.771875 -110.8125 25.121875 -110.8125 23.421875 C-110.1525 23.421875 -109.4925 23.421875 -108.8125 23.421875 C-108.8125 22.761875 -108.8125 22.101875 -108.8125 21.421875 C-108.1525 21.421875 -107.4925 21.421875 -106.8125 21.421875 C-106.8125 20.431875 -106.8125 19.441875 -106.8125 18.421875 C-106.1525 18.421875 -105.4925 18.421875 -104.8125 18.421875 C-104.8125 17.431875 -104.8125 16.441875 -104.8125 15.421875 C-102.3375 14.926875 -102.3375 14.926875 -99.8125 14.421875 C-99.8125 13.761875 -99.8125 13.101875 -99.8125 12.421875 C-98.8225 12.421875 -97.8325 12.421875 -96.8125 12.421875 C-96.544375 11.803125 -96.27625 11.184375 -96 10.546875 C-94.2446693 7.40575691 -92.15587135 6.53633212 -88.8125 5.421875 C-88.1525 5.421875 -87.4925 5.421875 -86.8125 5.421875 C-88.1214572 2.29990022 -88.1214572 2.29990022 -90.8125 0.421875 C-90.8125 -0.238125 -90.8125 -0.898125 -90.8125 -1.578125 C-97.56075317 -0.07851318 -103.8747407 2.51523606 -107.8125 8.421875 C-108.4725 7.761875 -109.1325 7.101875 -109.8125 6.421875 C-79.78640691 -24.10946485 -33.8343368 -24.79240197 0 0 Z " fill="#0B51F9" transform="translate(214.8125,121.578125)"/>
<path d="M0 0 C0 4.95 0 9.9 0 15 C-1.546875 14.95875 -3.09375 14.9175 -4.6875 14.875 C-10.09454042 14.89758647 -10.09454042 14.89758647 -15 17 C-19.63803491 22.15337212 -20.1750523 25.53107456 -20.31640625 32.2890625 C-20.33718735 33.10748627 -20.35796844 33.92591003 -20.37937927 34.76913452 C-20.44484812 37.38766966 -20.50374726 40.00630639 -20.5625 42.625 C-20.60568776 44.39844807 -20.64930214 46.17188581 -20.69335938 47.9453125 C-20.80052676 52.29677046 -20.90180169 56.64833077 -21 61 C-25.95 61 -30.9 61 -36 61 C-36 41.2 -36 21.4 -36 1 C-31.05 1 -26.1 1 -21 1 C-20.67 2.98 -20.34 4.96 -20 7 C-19.11248047 6.36771484 -19.11248047 6.36771484 -18.20703125 5.72265625 C-17.41683594 5.17480469 -16.62664062 4.62695312 -15.8125 4.0625 C-15.03519531 3.51722656 -14.25789063 2.97195312 -13.45703125 2.41015625 C-8.88068637 -0.21633103 -5.3309699 0 0 0 Z " fill="#5836EA" transform="translate(521,162)"/>
<path d="M0 0 C5.85250037 3.64012661 9.93656126 9.7989621 11.80078125 16.40234375 C13.31759799 28.06497909 13.18036585 39.35745499 6.52734375 49.35546875 C2.41541609 54.50565814 -3.36961907 57.86664092 -9.84765625 59.10546875 C-12.18066558 59.14435224 -14.51475426 59.15033225 -16.84765625 59.10546875 C-17.17765625 58.44546875 -17.50765625 57.78546875 -17.84765625 57.10546875 C-17.08839844 57.04488281 -16.32914062 56.98429687 -15.546875 56.921875 C-14.55300781 56.83808594 -13.55914062 56.75429687 -12.53515625 56.66796875 C-11.54902344 56.58675781 -10.56289063 56.50554687 -9.546875 56.421875 C-6.75390026 56.18734316 -6.75390026 56.18734316 -3.84765625 55.10546875 C-4.76998047 55.01458984 -4.76998047 55.01458984 -5.7109375 54.921875 C-6.51917969 54.83808594 -7.32742188 54.75429687 -8.16015625 54.66796875 C-8.96066406 54.58675781 -9.76117188 54.50554687 -10.5859375 54.421875 C-12.84765625 54.10546875 -12.84765625 54.10546875 -15.84765625 53.10546875 C-15.51765625 52.11546875 -15.18765625 51.12546875 -14.84765625 50.10546875 C-15.50765625 49.44546875 -16.16765625 48.78546875 -16.84765625 48.10546875 C-14.86765625 47.61046875 -14.86765625 47.61046875 -12.84765625 47.10546875 C-14.49765625 47.10546875 -16.14765625 47.10546875 -17.84765625 47.10546875 C-15.50725099 45.93526612 -13.17366326 44.80285965 -10.78515625 43.73046875 C-6.72685309 41.48544998 -5.29722503 39.4541751 -3.84765625 35.10546875 C-2.79976099 23.73900926 -2.79976099 23.73900926 -6.9375 13.4921875 C-10.96558872 10.56791041 -16.00858548 10.4141814 -20.84765625 10.10546875 C-20.84765625 9.44546875 -20.84765625 8.78546875 -20.84765625 8.10546875 C-21.83765625 8.76546875 -22.82765625 9.42546875 -23.84765625 10.10546875 C-26.03515625 9.73046875 -26.03515625 9.73046875 -27.84765625 9.10546875 C-27.18765625 8.11546875 -26.52765625 7.12546875 -25.84765625 6.10546875 C-26.83765625 6.43546875 -27.82765625 6.76546875 -28.84765625 7.10546875 C-27.48997421 2.21781342 -25.17731204 0.57955777 -20.84765625 -1.89453125 C-14.00827855 -4.17432382 -6.42852075 -3.11232823 0 0 Z " fill="#4926E7" transform="translate(463.84765625,164.89453125)"/>
<path d="M0 0 C2.97650985 2.00779119 4.6481115 4.64667428 6.5234375 7.63671875 C6.9148291 8.25893311 7.3062207 8.88114746 7.70947266 9.5222168 C19.68230539 29.16307115 23.01078748 51.64419234 17.99609375 74.08203125 C15.92071849 82.32614865 12.78129881 89.76708119 9.1484375 97.44921875 C7.85738439 93.57605941 8.75922844 92.60349244 10.5234375 89.01171875 C12.85404106 84.22682039 14.2999058 80.53731703 14.2109375 75.19921875 C14.1903125 73.96171875 14.1696875 72.72421875 14.1484375 71.44921875 C14.8084375 71.44921875 15.4684375 71.44921875 16.1484375 71.44921875 C16.17540115 69.65763386 16.19481667 67.86593402 16.2109375 66.07421875 C16.22253906 65.07648438 16.23414063 64.07875 16.24609375 63.05078125 C16.32850352 60.46489422 16.32850352 60.46489422 15.1484375 58.44921875 C15.8084375 58.44921875 16.4684375 58.44921875 17.1484375 58.44921875 C17.00608293 56.71976222 16.85939368 54.99066221 16.7109375 53.26171875 C16.62972656 52.29878906 16.54851562 51.33585937 16.46484375 50.34375 C16.2081475 47.53156572 16.2081475 47.53156572 15.6484375 45.13671875 C14.93848397 41.32071852 14.78391345 37.50860914 14.5859375 33.63671875 C14.54275391 32.84845703 14.49957031 32.06019531 14.45507812 31.24804688 C14.34965429 29.3152766 14.24860656 27.38226849 14.1484375 25.44921875 C12.8284375 25.77921875 11.5084375 26.10921875 10.1484375 26.44921875 C8.16481681 23.53212951 8.1608184 22.32540971 8.5234375 18.69921875 C8.7296875 17.62671875 8.9359375 16.55421875 9.1484375 15.44921875 C5.8484375 15.77921875 2.5484375 16.10921875 -0.8515625 16.44921875 C-0.3565625 17.43921875 -0.3565625 17.43921875 0.1484375 18.44921875 C0.8084375 18.11921875 1.4684375 17.78921875 2.1484375 17.44921875 C2.29539062 18.53589844 2.29539062 18.53589844 2.4453125 19.64453125 C2.59484375 20.61132812 2.744375 21.578125 2.8984375 22.57421875 C3.03765625 23.52554688 3.176875 24.476875 3.3203125 25.45703125 C4.01209194 28.59661957 4.01209194 28.59661957 6.1796875 31.37890625 C8.4930035 34.98657763 8.73352965 37.19826096 8.8984375 41.44921875 C8.95257813 42.75117188 9.00671875 44.053125 9.0625 45.39453125 C9.09450719 46.74601833 9.12313095 48.0975896 9.1484375 49.44921875 C9.16358398 50.12307617 9.17873047 50.79693359 9.19433594 51.49121094 C9.27369052 55.48023049 9.34948597 59.46372858 9.1484375 63.44921875 C8.8184375 63.77921875 8.4884375 64.10921875 8.1484375 64.44921875 C8.23828051 66.30694037 8.39455611 68.1616986 8.5859375 70.01171875 C8.73869141 71.52958984 8.73869141 71.52958984 8.89453125 73.078125 C8.97832031 73.86058594 9.06210938 74.64304687 9.1484375 75.44921875 C8.4884375 75.44921875 7.8284375 75.44921875 7.1484375 75.44921875 C7.1484375 74.78921875 7.1484375 74.12921875 7.1484375 73.44921875 C6.4884375 73.44921875 5.8284375 73.44921875 5.1484375 73.44921875 C5.0246875 74.19171875 4.9009375 74.93421875 4.7734375 75.69921875 C4.19357049 78.2506336 3.41135011 80.17597605 2.1484375 82.44921875 C1.1484375 80.44921875 1.1484375 80.44921875 1.671875 78.4609375 C1.95289063 77.69394531 2.23390625 76.92695313 2.5234375 76.13671875 C8.19501449 60.52663068 6.79442839 40.88565815 -0.0078125 25.90234375 C-0.91939956 24.06614697 -1.87964519 22.25420804 -2.8515625 20.44921875 C-2.8515625 19.78921875 -2.8515625 19.12921875 -2.8515625 18.44921875 C-3.8828125 19.00609375 -4.9140625 19.56296875 -5.9765625 20.13671875 C-6.55664062 20.44996094 -7.13671875 20.76320312 -7.734375 21.0859375 C-8.43304688 21.53582031 -9.13171875 21.98570312 -9.8515625 22.44921875 C-11.41777344 23.38894531 -11.41777344 23.38894531 -13.015625 24.34765625 C-15.99620536 26.89101624 -16.39017738 29.07618266 -16.8046875 32.9140625 C-16.93043135 35.07021932 -17.02814276 37.2281467 -17.1015625 39.38671875 C-17.22589598 41.6342979 -17.35348243 43.88169954 -17.484375 46.12890625 C-17.54141602 47.21268555 -17.59845703 48.29646484 -17.65722656 49.41308594 C-18.02407242 55.14436119 -18.89955698 60.78782421 -19.8515625 66.44921875 C-20.5115625 65.45921875 -21.1715625 64.46921875 -21.8515625 63.44921875 C-22.8415625 63.94421875 -22.8415625 63.94421875 -23.8515625 64.44921875 C-23.73729741 62.03160999 -23.61056589 59.61574657 -23.4765625 57.19921875 C-23.43015625 56.17634766 -23.43015625 56.17634766 -23.3828125 55.1328125 C-23.16896876 51.46182837 -22.84079195 48.58670259 -20.8515625 45.44921875 C-20.8515625 46.10921875 -20.8515625 46.76921875 -20.8515625 47.44921875 C-20.1915625 47.44921875 -19.5315625 47.44921875 -18.8515625 47.44921875 C-18.86896484 45.54849609 -18.86896484 45.54849609 -18.88671875 43.609375 C-18.89610669 41.91015774 -18.90520581 40.21093886 -18.9140625 38.51171875 C-18.92244141 37.68091797 -18.93082031 36.85011719 -18.93945312 35.99414062 C-18.96123206 30.39695434 -18.56315518 25.00188293 -17.8515625 19.44921875 C-18.8415625 19.11921875 -19.8315625 18.78921875 -20.8515625 18.44921875 C-21.1815625 19.10921875 -21.5115625 19.76921875 -21.8515625 20.44921875 C-22.5115625 20.44921875 -23.1715625 20.44921875 -23.8515625 20.44921875 C-26.55711997 24.08335026 -27.28208318 26.97206787 -27.5390625 31.44921875 C-27.60480469 32.45984375 -27.67054688 33.47046875 -27.73828125 34.51171875 C-27.88818262 37.38681341 -27.88818262 37.38681341 -27.74609375 40.01171875 C-27.8515625 42.44921875 -27.8515625 42.44921875 -28.82299805 44.74951172 C-29.92552916 47.64336147 -30.21952747 49.99896144 -30.4140625 53.08203125 C-30.48882812 54.13519531 -30.56359375 55.18835938 -30.640625 56.2734375 C-30.78174723 58.48173911 -30.92236875 60.69007278 -31.0625 62.8984375 C-31.13726562 63.94902344 -31.21203125 64.99960938 -31.2890625 66.08203125 C-31.34964844 67.03996582 -31.41023437 67.99790039 -31.47265625 68.98486328 C-31.8515625 71.44921875 -31.8515625 71.44921875 -33.8515625 74.44921875 C-33.66630697 68.00360409 -33.38460077 61.56962289 -33.03466797 55.13085938 C-32.87393399 51.89903494 -32.75885791 48.66829448 -32.65116882 45.43438721 C-31.77289653 21.88491681 -31.77289653 21.88491681 -27.21875 16.60546875 C-24.63922886 14.37414079 -21.77777848 12.84492784 -18.68603516 11.40039062 C-15.36027345 9.67598716 -12.56444832 7.2359575 -9.6640625 4.88671875 C-2.47122605 -0.73511155 -2.47122605 -0.73511155 0 0 Z " fill="#0F57F2" transform="translate(224.8515625,132.55078125)"/>
<path d="M0 0 C4.62 0 9.24 0 14 0 C14 19.8 14 39.6 14 60 C9.38 60 4.76 60 0 60 C0 40.2 0 20.4 0 0 Z " fill="#4424E2" transform="translate(530,163)"/>
<path d="M0 0 C4.44095437 3.82415515 6.03520219 6.74894896 6.6015625 12.51953125 C6.76306897 20.00021708 6.70979938 25.75690908 1.75 31.75 C-1.5937571 34.39714104 -5.39716629 34.2770786 -9.46484375 34.2109375 C-13.13150107 33.77219218 -15.0724647 32.42378278 -17.75 29.9375 C-21.8675139 23.62397868 -21.55749185 16.25758914 -20.75 8.9375 C-19.73431423 6.21904692 -18.79119361 5.09533325 -16.75 2.9375 C-16.234375 2.339375 -15.71875 1.74125 -15.1875 1.125 C-10.99758512 -2.33623403 -4.78343625 -1.84814582 0 0 Z " fill="#FAFAFC" transform="translate(454.75,176.0625)"/>
<path d="M0 0 C3.93214301 1.58939426 6.33020346 4.16342502 9.25 7.1875 C12.35194027 10.39253945 15.46399434 13.43760598 18.84765625 16.34375 C23.95586566 20.75758679 28.59529015 25.6081155 33.26367188 30.47851562 C33.93333984 31.16236328 34.60300781 31.84621094 35.29296875 32.55078125 C35.8861792 33.16606689 36.47938965 33.78135254 37.09057617 34.4152832 C39.30666591 36.41960755 39.30666591 36.41960755 44 38 C44.33 34.04 44.66 30.08 45 26 C45.33 26 45.66 26 46 26 C46 31.28 46 36.56 46 42 C41.05 42.495 41.05 42.495 36 43 C35.67 43.99 35.34 44.98 35 46 C36.55901182 48.14579161 36.55901182 48.14579161 39 50 C42.54230809 50.58342353 42.54230809 50.58342353 46 50 C47.7511573 48.5833253 47.7511573 48.5833253 49 47 C49.99 47 50.98 47 52 47 C52 46.01 52 45.02 52 44 C52.99 44 53.98 44 55 44 C55.66 42.68 56.32 41.36 57 40 C56.58443583 44.84824868 54.62551755 46.88036862 51 50 C46.44978216 52.70169184 42.16007671 52.81918132 37 52 C27.25669145 48.06453552 19.60080175 37.81446128 12.4765625 30.359375 C10.03662104 27.91548249 10.03662104 27.91548249 7.0703125 25.95703125 C-0.56696405 20.39620257 -0.56696405 20.39620257 -1.40087891 15.78173828 C-1.59255593 10.4436939 -0.88707835 5.25379305 0 0 Z " fill="#0594F1" transform="translate(145,181)"/>
<path d="M0 0 C9.00272153 -0.49105754 16.13892338 1.543659 23.2109375 7.27734375 C28.95392096 12.8071597 31.20832259 19.16593846 32 27 C32.01042281 29.33331005 32.01143359 31.66669468 32 34 C26.78559487 34.07412765 21.57149607 34.12859104 16.35668945 34.16479492 C14.58254657 34.17988641 12.80844102 34.20036191 11.03442383 34.22631836 C8.48509513 34.26268641 5.93625941 34.27972238 3.38671875 34.29296875 C2.59287277 34.30845261 1.79902679 34.32393646 0.98112488 34.33988953 C-4.54461451 34.34158031 -4.54461451 34.34158031 -7.02416992 32.48168945 C-7.34619385 31.99273193 -7.66821777 31.50377441 -8 31 C-6.865625 30.71125 -5.73125 30.4225 -4.5625 30.125 C-3.386875 29.75375 -2.21125 29.3825 -1 29 C-0.67 28.34 -0.34 27.68 0 27 C-3.3 26.67 -6.6 26.34 -10 26 C-10 25.67 -10 25.34 -10 25 C-1.42 25 7.16 25 16 25 C13.94928486 16.68084513 13.94928486 16.68084513 11 13.9375 C6.37023675 12.49069898 1.80978327 12.77256717 -3 13 C-0.62124245 10.62124245 0.12466032 10.71596941 3.375 10.5 C8.67005128 10.14581597 11.86975667 8.24519118 16 5 C10.66164461 3.07528683 5.65020618 1.60108576 0 1 C0 0.67 0 0.34 0 0 Z " fill="#4825E7" transform="translate(379,162)"/>
<path d="M0 0 C4.95 0 9.9 0 15 0 C15 23.43 15 46.86 15 71 C14.67 71 14.34 71 14 71 C14 47.9 14 24.8 14 1 C10.04 1 6.08 1 2 1 C2 18.16 2 35.32 2 53 C0.02 53.495 0.02 53.495 -2 54 C-2.495 53.505 -2.495 53.505 -3 53 C-3.33 53.99 -3.66 54.98 -4 56 C-4.33 55.01 -4.66 54.02 -5 53 C-5.66 53 -6.32 53 -7 53 C-6.34 54.65 -5.68 56.3 -5 58 C-6.32 57.67 -7.64 57.34 -9 57 C-9 56.34 -9 55.68 -9 55 C-9.99 55.495 -9.99 55.495 -11 56 C-11 56.66 -11 57.32 -11 58 C-10.34 58.66 -9.68 59.32 -9 60 C-9.99 60 -10.98 60 -12 60 C-13.38671875 58.46875 -13.38671875 58.46875 -14.6875 56.5 C-15.12449219 55.8503125 -15.56148438 55.200625 -16.01171875 54.53125 C-16.33785156 54.0259375 -16.66398437 53.520625 -17 53 C-16.67 52.34 -16.34 51.68 -16 51 C-15.34 51.33 -14.68 51.66 -14 52 C-14.680625 50.906875 -15.36125 49.81375 -16.0625 48.6875 C-17.22265625 46.82421875 -17.22265625 46.82421875 -18 45 C-17.67 44.01 -17.34 43.02 -17 42 C-16.34 42 -15.68 42 -15 42 C-13.79668593 37.14923848 -13.79668593 37.14923848 -15.4375 32.6875 C-15.953125 32.130625 -16.46875 31.57375 -17 31 C-17 30.34 -17 29.68 -17 29 C-17.99 29 -18.98 29 -20 29 C-20.350625 28.071875 -20.70125 27.14375 -21.0625 26.1875 C-23.00007836 21.61032213 -25.74048955 17.58609596 -28.4765625 13.453125 C-30 11 -30 11 -31 8 C-30.34 8 -29.68 8 -29 8 C-27.43115234 10.10449219 -27.43115234 10.10449219 -25.5859375 13.046875 C-24.90660156 14.12066406 -24.22726562 15.19445312 -23.52734375 16.30078125 C-22.80957476 17.45032042 -22.09212794 18.60006081 -21.375 19.75 C-19.98815287 21.95386402 -18.60013362 24.1569909 -17.2109375 26.359375 C-16.51838867 27.45830078 -15.82583984 28.55722656 -15.11230469 29.68945312 C-11.82161008 34.84685244 -8.41396605 39.92374579 -5 45 C-3.68 46.98 -2.36 48.96 -1 51 C-0.67 34.17 -0.34 17.34 0 0 Z " fill="#3E21E4" transform="translate(330,143)"/>
<path d="M0 0 C1.90845703 0.04060547 1.90845703 0.04060547 3.85546875 0.08203125 C5.31919922 0.13423828 5.31919922 0.13423828 6.8125 0.1875 C6.08165599 6.68183542 3.59023781 9.89485817 -1.1875 14.1875 C-8.65396218 19.03098569 -16.58984766 20.33852928 -25.359375 18.80859375 C-27.25 18.3125 -27.25 18.3125 -30.1875 17.1875 C-30.5175 16.5275 -30.8475 15.8675 -31.1875 15.1875 C-30.5584375 15.34347656 -29.929375 15.49945313 -29.28125 15.66015625 C-23.49893712 16.97510993 -19.01995314 17.26758392 -13.1875 16.1875 C-14.30125 16.249375 -15.415 16.31125 -16.5625 16.375 C-21.74841969 16.40288129 -26.32513334 14.8614295 -31.1875 13.1875 C-31.1875 12.5275 -31.1875 11.8675 -31.1875 11.1875 C-32.5075 10.8575 -33.8275 10.5275 -35.1875 10.1875 C-35.0225 9.56875 -34.8575 8.95 -34.6875 8.3125 C-34.11115356 6.22686614 -34.11115356 6.22686614 -34.1875 4.1875 C-33.1975 4.1875 -32.2075 4.1875 -31.1875 4.1875 C-31.1875 4.8475 -31.1875 5.5075 -31.1875 6.1875 C-29.8675 6.1875 -28.5475 6.1875 -27.1875 6.1875 C-26.8575 5.5275 -26.5275 4.8675 -26.1875 4.1875 C-25.4140625 4.6825 -25.4140625 4.6825 -24.625 5.1875 C-21.29439226 6.55390318 -18.76103918 6.50096835 -15.1875 6.1875 C-12.55941432 4.93318638 -10.7455185 3.93396409 -8.99609375 1.59375 C-6.15060466 -0.61872532 -3.52490014 -0.0970156 0 0 Z " fill="#4925EA" transform="translate(402.1875,204.8125)"/>
<path d="M0 0 C13.53 0 27.06 0 41 0 C41 0.99 41 1.98 41 3 C40.34 3 39.68 3 39 3 C39 4.65 39 6.3 39 8 C38.04738281 8.01417969 37.09476562 8.02835938 36.11328125 8.04296875 C29.32646885 8.02688409 29.32646885 8.02688409 23.0625 10.14453125 C21.64398414 11.62953384 21.64398414 11.62953384 20 14 C16.38069302 15.20643566 13.80768995 15.32268559 10 15 C6.17157133 12.93853841 3.09454884 10.85837944 1 7 C0.67 4.69 0.34 2.38 0 0 Z " fill="#EFEDFB" transform="translate(370,197)"/>
<path d="M0 0 C23.78759544 -1.0986171 44.31949445 3.29445714 63.8125 17.578125 C65 19 65 19 65 23 C63.20703125 24.73828125 63.20703125 24.73828125 60.8125 26.3125 C60.03519531 26.84488281 59.25789063 27.37726563 58.45703125 27.92578125 C55.4246006 29.25156572 54.10775904 29.0325941 51 28 C47.23111688 26.07104407 44.42532512 24.27597537 43.0625 20.1875 C43.041875 19.465625 43.02125 18.74375 43 18 C41.35 18.33 39.7 18.66 38 19 C38.495 17.515 38.495 17.515 39 16 C38.34 16 37.68 16 37 16 C37 15.01 37 14.02 37 13 C38 12 39 11 40 10 C40 9.01 40 8.02 40 7 C35.05 6.01 35.05 6.01 30 5 C30 4.34 30 3.68 30 3 C20.1 2.34 10.2 1.68 0 1 C0 0.67 0 0.34 0 0 Z " fill="#0D4CF8" transform="translate(151,104)"/>
<path d="M0 0 C3.96 0.33 7.92 0.66 12 1 C11.67 2.32 11.34 3.64 11 5 C10.67 4.34 10.34 3.68 10 3 C8.02 3 6.04 3 4 3 C3.67 19.5 3.34 36 3 53 C3.66 53 4.32 53 5 53 C5 53.66 5 54.32 5 55 C6.65 55 8.3 55 10 55 C10.029729 53.6070874 10.029729 53.6070874 10.06005859 52.18603516 C10.13808613 48.7454948 10.22477462 45.30540109 10.31738281 41.86523438 C10.35569998 40.37541111 10.39054808 38.88549446 10.421875 37.39550781 C10.46746729 35.25551952 10.52546874 33.11617564 10.5859375 30.9765625 C10.6173584 29.68830566 10.6487793 28.40004883 10.68115234 27.07275391 C11 24 11 24 13 22 C14.53297297 25.06594594 14.12131455 28.27111853 14.09765625 31.6328125 C14.0962413 32.38464813 14.09482635 33.13648376 14.09336853 33.91110229 C14.08776465 36.3157751 14.07521157 38.72035527 14.0625 41.125 C14.0574855 42.75390491 14.0529225 44.38281127 14.04882812 46.01171875 C14.03779397 50.00784827 14.02052679 54.00390842 14 58 C9.38 58 4.76 58 0 58 C0 38.86 0 19.72 0 0 Z " fill="#3C1EE7" transform="translate(486,164)"/>
<path d="M0 0 C3.19162198 1.6549151 5.29278786 3.0034738 7.375 5.9375 C8 8 8 8 8 13 C-0.25 13 -8.5 13 -17 13 C-15.93684235 7.68421173 -14.99806754 4.65554167 -10.8125 1.1875 C-7.14214432 -0.36220573 -3.88773603 -0.69233655 0 0 Z " fill="#F3F2FC" transform="translate(387,174)"/>
<path d="M0 0 C1.03182335 0.96713007 2.02942534 1.97141611 3 3 C4.71390546 4.10397587 4.71390546 4.10397587 6.57421875 5.04296875 C7.24130859 5.39423828 7.90839844 5.74550781 8.59570312 6.10742188 C9.28599609 6.46384766 9.97628906 6.82027344 10.6875 7.1875 C11.38939453 7.55552734 12.09128906 7.92355469 12.81445312 8.30273438 C14.54037635 9.2067894 16.26984719 10.10406601 18 11 C16.1875 11.625 16.1875 11.625 14 12 C13.01 11.34 12.02 10.68 11 10 C7.87478167 9.83300768 7.87478167 9.83300768 5 10 C4.34 11.65 3.68 13.3 3 15 C3.66 15 4.32 15 5 15 C5.08121094 15.61359375 5.16242188 16.2271875 5.24609375 16.859375 C5.81193356 19.13830628 5.81193356 19.13830628 7.84765625 20.265625 C8.57855469 20.59046875 9.30945313 20.9153125 10.0625 21.25 C10.79597656 21.58515625 11.52945313 21.9203125 12.28515625 22.265625 C13.13400391 22.62914062 13.13400391 22.62914062 14 23 C11.29059405 24.06967091 10.16123866 24.05726009 7.37109375 23.06640625 C0.0607323 19.31875091 -6.50920126 15.03420217 -13 10 C-11.80888251 6.42664753 -10.56643692 5.58283238 -7.625 3.3125 C-6.83351563 2.68988281 -6.04203125 2.06726563 -5.2265625 1.42578125 C-3 0 -3 0 0 0 Z " fill="#13BCE0" transform="translate(121,242)"/>
<path d="M0 0 C3.6903058 3.25372945 5.84509555 6.95772101 8 11.3125 C8.34812744 12.01310547 8.69625488 12.71371094 9.05493164 13.43554688 C12.40044239 20.422659 14.42398351 27.42054497 16 35 C16.15082031 35.721875 16.30164063 36.44375 16.45703125 37.1875 C16.77265994 39.14018952 16.91541256 41.02276867 17 43 C17.07734375 44.62615234 17.07734375 44.62615234 17.15625 46.28515625 C17.57424269 63.12677849 13.14506076 77.89087942 6 93 C4.70894689 89.12684066 5.61079094 88.15427369 7.375 84.5625 C9.70560356 79.77760164 11.1514683 76.08809828 11.0625 70.75 C11.041875 69.5125 11.02125 68.275 11 67 C11.66 67 12.32 67 13 67 C13.02696365 65.20841511 13.04637917 63.41671527 13.0625 61.625 C13.07410156 60.62726563 13.08570313 59.62953125 13.09765625 58.6015625 C13.18006602 56.01567547 13.18006602 56.01567547 12 54 C12.66 54 13.32 54 14 54 C13.85764543 52.27054347 13.71095618 50.54144346 13.5625 48.8125 C13.48128906 47.84957031 13.40007812 46.88664062 13.31640625 45.89453125 C13.05971 43.08234697 13.05971 43.08234697 12.5 40.6875 C11.79004647 36.87149977 11.63547595 33.05939039 11.4375 29.1875 C11.39431641 28.39923828 11.35113281 27.61097656 11.30664062 26.79882812 C11.20121679 24.86605785 11.10016906 22.93304974 11 21 C9.68 21.33 8.36 21.66 7 22 C5.01637931 19.08291076 5.0123809 17.87619096 5.375 14.25 C5.58125 13.1775 5.7875 12.105 6 11 C4.35 11 2.7 11 1 11 C0.67 10.34 0.34 9.68 0 9 C0.66 9 1.32 9 2 9 C1.67 8.443125 1.34 7.88625 1 7.3125 C-0.1309601 4.69715478 -0.15662974 2.8193354 0 0 Z " fill="#134AEF" transform="translate(228,137)"/>
<path d="M0 0 C4.0743356 0.84881992 5.54405875 2.30225596 8 5.625 C8.625 8.625 8.625 8.625 8 11.625 C5.53959272 14.95378632 4.10389613 16.41801948 0 17.1875 C-3.80484394 16.47409176 -5.4511805 15.5486459 -8 12.625 C-8.625 9.1875 -8.625 9.1875 -8 5.625 C-5.55401113 2.24378009 -4.10703441 0.85563217 0 0 Z " fill="#4124DA" transform="translate(537,138.375)"/>
<path d="M0 0 C0 4.95 0 9.9 0 15 C-0.33 14.34 -0.66 13.68 -1 13 C-7.435 13.495 -7.435 13.495 -14 14 C-14.33 13.01 -14.66 12.02 -15 11 C-16.65 11.33 -18.3 11.66 -20 12 C-18.92844636 5.80880121 -18.92844636 5.80880121 -16.484375 3.6796875 C-10.92246521 0.41508827 -6.48757896 0 0 0 Z " fill="#4924E8" transform="translate(521,162)"/>
<path d="M0 0 C0.66 0 1.32 0 2 0 C2 18.48 2 36.96 2 56 C-1.96 56 -5.92 56 -10 56 C-9.67 55.01 -9.34 54.02 -9 53 C-6.36 53.66 -3.72 54.32 -1 55 C-1.00222061 54.38469925 -1.00444122 53.7693985 -1.00672913 53.13545227 C-1.02886348 46.72775859 -1.04394069 40.32007579 -1.05493164 33.91235352 C-1.0599584 31.52139851 -1.06678075 29.13044657 -1.07543945 26.73950195 C-1.08757747 23.30158734 -1.09324492 19.86371339 -1.09765625 16.42578125 C-1.10281754 15.35789871 -1.10797882 14.29001617 -1.11329651 13.18977356 C-1.11337204 12.18911362 -1.11344757 11.18845367 -1.11352539 10.1574707 C-1.115746 9.28032913 -1.11796661 8.40318756 -1.12025452 7.49946594 C-0.99577809 4.91224853 -0.57111904 2.52321004 0 0 Z " fill="#4A27F7" transform="translate(541,165)"/>
<path d="M0 0 C0.66 0 1.32 0 2 0 C2.66 1.98 3.32 3.96 4 6 C4.66 6 5.32 6 6 6 C6.45375 6.928125 6.9075 7.85625 7.375 8.8125 C8.9421633 12.03921389 8.9421633 12.03921389 11 15 C11.4140625 18.08203125 11.4140625 18.08203125 11.625 21.8125 C11.66222168 22.46814941 11.69944336 23.12379883 11.73779297 23.79931641 C12.0864562 30.51389534 12.33880669 37.2836556 12 44 C11.505 44.495 11.505 44.495 11 45 C11.08984301 46.85772162 11.24611861 48.71247985 11.4375 50.5625 C11.53933594 51.57441406 11.64117187 52.58632812 11.74609375 53.62890625 C11.82988281 54.41136719 11.91367188 55.19382813 12 56 C11.34 56 10.68 56 10 56 C10 55.34 10 54.68 10 54 C9.34 54 8.68 54 8 54 C7.87625 54.7425 7.7525 55.485 7.625 56.25 C7.04513299 58.80141485 6.26291261 60.7267573 5 63 C4 61 4 61 4.5234375 59.01171875 C4.80445313 58.24472656 5.08546875 57.47773438 5.375 56.6875 C11.60236587 39.54769394 8.79907036 19.96373809 1.75 3.625 C1.17655477 2.41194279 0.59751391 1.20138435 0 0 Z " fill="#195CEA" transform="translate(222,152)"/>
<path d="M0 0 C0.6875 2.0625 0.6875 2.0625 1 4 C4.62885324 4.15149298 4.62885324 4.15149298 8 3 C7.34 4.65 6.68 6.3 6 8 C10.95 12.95 15.9 17.9 21 23 C18 23 18 23 16.25415039 21.57885742 C15.62500732 20.92763916 14.99586426 20.2764209 14.34765625 19.60546875 C13.30641602 18.54295898 13.30641602 18.54295898 12.24414062 17.45898438 C11.16422852 16.33459961 11.16422852 16.33459961 10.0625 15.1875 C8.63900137 13.72043796 7.21329184 12.25551725 5.78515625 10.79296875 C5.15488525 10.1383667 4.52461426 9.48376465 3.87524414 8.80932617 C2.02164612 6.93489244 2.02164612 6.93489244 -0.23657227 5.38793945 C-1.10946899 4.70090942 -1.10946899 4.70090942 -2 4 C-2 3.34 -2 2.68 -2 2 C-2.66 2 -3.32 2 -4 2 C-3.9690625 3.16402344 -3.938125 4.32804688 -3.90625 5.52734375 C-3.90625 12.5754123 -4.76053232 19.56237138 -5.5 26.5625 C-5.64494896 27.96675382 -5.78948345 29.37105049 -5.93359375 30.77539062 C-6.28500051 34.18403622 -6.64057899 37.59219173 -7 41 C-7.33 41 -7.66 41 -8 41 C-8 34.73 -8 28.46 -8 22 C-8.66 22 -9.32 22 -10 22 C-9.505 20.515 -9.505 20.515 -9 19 C-8.34 19 -7.68 19 -7 19 C-6.67 12.73 -6.34 6.46 -6 0 C-3 -1 -3 -1 0 0 Z " fill="#1867E4" transform="translate(141,155)"/>
<path d="M0 0 C0.33 0 0.66 0 1 0 C1 5.28 1 10.56 1 16 C-3.95 16.495 -3.95 16.495 -9 17 C-9.33 17.99 -9.66 18.98 -10 20 C-8.44098818 22.14579161 -8.44098818 22.14579161 -6 24 C-2.45769191 24.58342353 -2.45769191 24.58342353 1 24 C2.7511573 22.5833253 2.7511573 22.5833253 4 21 C4.99 21 5.98 21 7 21 C7 20.01 7 19.02 7 18 C7.99 18 8.98 18 10 18 C10.66 16.68 11.32 15.36 12 14 C11.58443583 18.84824868 9.62551755 20.88036862 6 24 C1.47964263 26.68396219 -2.87333247 26.8818466 -8 26 C-11.87261387 24.11571325 -16.0232371 21.9535258 -18 18 C-16.68 17.34 -15.36 16.68 -14 16 C-13.34 16.66 -12.68 17.32 -12 18 C-10.0549 15.08235 -9.54723683 13.37462715 -9 10 C-6.23723823 10.52268466 -3.6739124 11.10869587 -1 12 C-0.67 8.04 -0.34 4.08 0 0 Z " fill="#13A0EA" transform="translate(190,207)"/>
<path d="M0 0 C0.33 0 0.66 0 1 0 C1.41061333 9.25402721 1.41061333 9.25402721 -1.70263672 13.10742188 C-4.03115496 14.99504643 -6.4105339 16.63789625 -8.9375 18.25 C-9.80181641 18.83918213 -10.66613281 19.42836426 -11.55664062 20.03540039 C-13.2588175 21.19307919 -14.97004748 22.33758118 -16.69091797 23.46728516 C-18.63277536 24.75624484 -20.51500237 26.0826876 -22.37890625 27.48046875 C-27.13383178 31.03071866 -27.13383178 31.03071866 -29 32 C-32.30286086 30.89904638 -32.78510901 30.3103981 -34.6875 27.5625 C-35.12449219 26.94503906 -35.56148438 26.32757813 -36.01171875 25.69140625 C-37 24 -37 24 -37 22 C-36.34 22 -35.68 22 -35 22 C-34.566875 22.639375 -34.13375 23.27875 -33.6875 23.9375 C-31.59150148 26.49927596 -30.21700528 26.65221564 -27 27 C-26.67 26.01 -26.34 25.02 -26 24 C-23.67793475 23.29508733 -21.34406932 22.62787571 -19 22 C-18.67 21.34 -18.34 20.68 -18 20 C-17.34 20 -16.68 20 -16 20 C-15.67 19.01 -15.34 18.02 -15 17 C-13.36368108 15.95107762 -11.69514137 14.95093297 -10 14 C-9.34 13.34 -8.68 12.68 -8 12 C-5.375 11.375 -5.375 11.375 -3 11 C-3 10.01 -3 9.02 -3 8 C-2.34 8 -1.68 8 -1 8 C-0.67 5.36 -0.34 2.72 0 0 Z " fill="#1EABE2" transform="translate(131,212)"/>
<path d="M0 0 C5.63025765 10.34852284 1.18535011 25.92531653 -1.69140625 36.5546875 C-3.57208286 42.59434609 -6.30006621 48.29065384 -9 54 C-10.29105311 50.12684066 -9.38920906 49.15427369 -7.625 45.5625 C-5.29439644 40.77760164 -3.8485317 37.08809828 -3.9375 31.75 C-3.958125 30.5125 -3.97875 29.275 -4 28 C-3.34 28 -2.68 28 -2 28 C-1.21226083 24.46498542 -0.82504198 21.09750212 -0.68359375 17.48046875 C-0.64169922 16.45888672 -0.59980469 15.43730469 -0.55664062 14.38476562 C-0.51732422 13.32966797 -0.47800781 12.27457031 -0.4375 11.1875 C-0.39431641 10.11306641 -0.35113281 9.03863281 -0.30664062 7.93164062 C-0.20089017 5.28787918 -0.09879767 2.6440289 0 0 Z " fill="#2978E2" transform="translate(243,176)"/>
<path d="M0 0 C4.01686987 -0.46707789 5.56501812 -0.32150834 8.875 2.125 C11 5 11 5 11.5625 8.0625 C10.88943111 11.5774153 9.73706304 12.77613628 7 15 C4.525 14.01 4.525 14.01 2 13 C2 11.35 2 9.7 2 8 C2.99 8 3.98 8 5 8 C4.67 5.69 4.34 3.38 4 1 C2.68 0.67 1.36 0.34 0 0 Z " fill="#4B29E9" transform="translate(534,139)"/>
<path d="M0 0 C0.66 0.33 1.32 0.66 2 1 C1.38253906 1.4125 0.76507813 1.825 0.12890625 2.25 C-12.36255877 10.76777219 -21.02109367 19.52183725 -28 33 C-28.33 33 -28.66 33 -29 33 C-29 31.02 -29 29.04 -29 27 C-28.34 27 -27.68 27 -27 27 C-27 26.01 -27 25.02 -27 24 C-26.01 24 -25.02 24 -24 24 C-24 22.35 -24 20.7 -24 19 C-23.34 19 -22.68 19 -22 19 C-22 18.34 -22 17.68 -22 17 C-21.34 17 -20.68 17 -20 17 C-20 16.01 -20 15.02 -20 14 C-19.34 14 -18.68 14 -18 14 C-18 13.01 -18 12.02 -18 11 C-16.35 10.67 -14.7 10.34 -13 10 C-13 9.34 -13 8.68 -13 8 C-12.01 8 -11.02 8 -10 8 C-9.731875 7.38125 -9.46375 6.7625 -9.1875 6.125 C-7.4321693 2.98388191 -5.34337135 2.11445712 -2 1 C-1.34 0.67 -0.68 0.34 0 0 Z " fill="#175EE6" transform="translate(128,126)"/>
<path d="M0 0 C0.99 0 1.98 0 3 0 C2.96970703 1.01723145 2.93941406 2.03446289 2.90820312 3.08251953 C2.79431151 6.92555944 2.68315879 10.76867488 2.57275391 14.61181641 C2.5249763 16.26222818 2.47649602 17.91261979 2.42724609 19.56298828 C2.12490862 29.71288923 1.92558624 39.84458856 2 50 C1.01 50.495 1.01 50.495 0 51 C0 34.17 0 17.34 0 0 Z " fill="#4828FB" transform="translate(531,165)"/>
<path d="M0 0 C0.33 0.99 0.66 1.98 1 3 C-0.1796875 4.68359375 -0.1796875 4.68359375 -1.875 6.4375 C-4.30881763 8.96753832 -5.24190678 10.59559987 -6 14 C-8 16 -8 16 -10 18 C-11.03432904 19.98246398 -12.03238392 21.98413316 -13 24 C-14.27754828 26.04407725 -15.62979183 28.01556058 -17 30 C-17.6875 28.38671875 -17.6875 28.38671875 -18 26 C-13.97168234 16.10146944 -7.59868466 7.43313598 0 0 Z " fill="#1861EA" transform="translate(104,129)"/>
<path d="M0 0 C-1.28860053 0.46688425 -2.58116332 0.92282871 -3.875 1.375 C-4.59429687 1.63023437 -5.31359375 1.88546875 -6.0546875 2.1484375 C-13.84521609 4.4008715 -21.2754367 5.33549539 -29.375 5.25 C-30.74591797 5.24202393 -30.74591797 5.24202393 -32.14453125 5.23388672 C-40.80814208 5.11253472 -48.96331619 4.41559062 -57 1 C-57 0.67 -57 0.34 -57 0 C-54.36 0 -51.72 0 -49 0 C-49 0.66 -49 1.32 -49 2 C-42.55186912 2.83201689 -36.18179814 3.134989 -29.6875 3.1875 C-28.52275146 3.20683594 -28.52275146 3.20683594 -27.33447266 3.2265625 C-23.04022119 3.23398398 -19.95937567 2.82795993 -16 1 C-14 1 -12 1 -10 1 C-8.96875 0.649375 -7.9375 0.29875 -6.875 -0.0625 C-3.83865946 -1.05261105 -2.92913691 -0.89885532 0 0 Z " fill="#27B7CC" transform="translate(192,266)"/>
<path d="M0 0 C2.55863972 3.83795959 4.00870582 7.90314718 5.68359375 12.1875 C6.93378861 15.27446018 6.93378861 15.27446018 10 18 C13.63 15.36 17.26 12.72 21 10 C21.33 10.99 21.66 11.98 22 13 C20.71034824 14.37562854 19.37310707 15.70766393 18 17 C17.34 17 16.68 17 16 17 C15.67 18.32 15.34 19.64 15 21 C12.63662911 21.84406103 11.41901901 22.15154245 9.0234375 21.28515625 C4.46184186 18.38792659 2.22271689 12.21778513 0.6875 7.1875 C0 4 0 4 0 0 Z " fill="#2199DA" transform="translate(95,207)"/>
<path d="M0 0 C-4.84150077 2.0323464 -9.80442109 3.44823833 -14.84375 4.90234375 C-17.89762614 5.96439721 -20.28525679 7.26708891 -23 9 C-24.03833984 9.49693359 -24.03833984 9.49693359 -25.09765625 10.00390625 C-27.1780534 11.09323124 -28.70124797 12.36164077 -30.4375 13.9375 C-33.14464621 16.33094257 -35.89991864 18.13995118 -39 20 C-39.66 20.99 -40.32 21.98 -41 23 C-41.66 22.34 -42.32 21.68 -43 21 C-34.24356767 12.09622385 -13.56885238 -4.84601871 0 0 Z " fill="#1D4BDD" transform="translate(148,107)"/>
<path d="M0 0 C0.5775 0.226875 1.155 0.45375 1.75 0.6875 C1.25628906 1.16960937 0.76257813 1.65171875 0.25390625 2.1484375 C-0.70708984 3.09589844 -0.70708984 3.09589844 -1.6875 4.0625 C-2.32558594 4.68898437 -2.96367187 5.31546875 -3.62109375 5.9609375 C-5.32882176 7.60473061 -5.32882176 7.60473061 -6.25 9.6875 C-6.91 9.6875 -7.57 9.6875 -8.25 9.6875 C-8.25 10.3475 -8.25 11.0075 -8.25 11.6875 C-10.56 11.3575 -12.87 11.0275 -15.25 10.6875 C-14.92 10.0275 -14.59 9.3675 -14.25 8.6875 C-15.57 8.3575 -16.89 8.0275 -18.25 7.6875 C-17.43015625 7.36136719 -16.6103125 7.03523437 -15.765625 6.69921875 C-14.68796875 6.26222656 -13.6103125 5.82523438 -12.5 5.375 C-11.43265625 4.94574219 -10.3653125 4.51648438 -9.265625 4.07421875 C-6.26339789 2.84360955 -6.26339789 2.84360955 -4.109375 0.95703125 C-2.25 -0.3125 -2.25 -0.3125 0 0 Z " fill="#13B0E6" transform="translate(202.25,245.3125)"/>
<path d="M0 0 C6.73256693 3.13223443 12.82777316 8.872356 17 15 C18.13887184 19.2783283 17.86236651 22.69460302 17 27 C16.835 28.2375 16.67 29.475 16.5 30.75 C16.335 31.4925 16.17 32.235 16 33 C12.73539027 31.19587357 11.11070205 30.16605307 9 27 C11.475 27.99 11.475 27.99 14 29 C15.01796262 24.55164278 15.54163599 20.54873928 15 16 C11.59560298 10.94031546 6.97878469 7.50180491 2.1640625 3.84765625 C1.44992188 3.23792969 0.73578125 2.62820312 0 2 C0 1.34 0 0.68 0 0 Z " fill="#246BDB" transform="translate(165,164)"/>
<path d="M0 0 C0 0.66 0 1.32 0 2 C-2.31 2 -4.62 2 -7 2 C-7 2.66 -7 3.32 -7 4 C-8.65 4 -10.3 4 -12 4 C-11.67 4.99 -11.34 5.98 -11 7 C-11.99 7 -12.98 7 -14 7 C-14 6.34 -14 5.68 -14 5 C-20.93 5 -27.86 5 -35 5 C-35 4.01 -35 3.02 -35 2 C-34.3201001 2.01047363 -33.6402002 2.02094727 -32.93969727 2.03173828 C-29.81400351 2.07370103 -26.68836934 2.09945291 -23.5625 2.125 C-21.95858398 2.15013672 -21.95858398 2.15013672 -20.32226562 2.17578125 C-13.37473946 2.21827376 -6.72134352 0 0 0 Z " fill="#20BADD" transform="translate(183,254)"/>
<path d="M0 0 C0.66 0 1.32 0 2 0 C3.60058594 2.15209961 3.60058594 2.15209961 5.484375 5.15234375 C6.17273438 6.23966797 6.86109375 7.32699219 7.5703125 8.44726562 C8.29715261 9.61050367 9.02371345 10.77391625 9.75 11.9375 C11.15935349 14.17711301 12.57213541 16.41454775 13.984375 18.65234375 C14.66177734 19.7285498 15.33917969 20.80475586 16.03710938 21.91357422 C18.62716898 25.98615301 21.2934314 30.0041276 24 34 C23.67 34.66 23.34 35.32 23 36 C20.521314 33.7387426 18.97349349 31.44201255 17.375 28.5 C16.94960938 27.7265625 16.52421875 26.953125 16.0859375 26.15625 C15 24 15 24 14 21 C13.01 21 12.02 21 11 21 C10.649375 20.071875 10.29875 19.14375 9.9375 18.1875 C7.99992164 13.61032213 5.25951045 9.58609596 2.5234375 5.453125 C1 3 1 3 0 0 Z " fill="#452CD7" transform="translate(299,151)"/>
<path d="M0 0 C1.93166016 0.01740234 1.93166016 0.01740234 3.90234375 0.03515625 C5.19269531 0.04417969 6.48304688 0.05320313 7.8125 0.0625 C8.81152344 0.07410156 9.81054688 0.08570313 10.83984375 0.09765625 C10.50984375 1.74765625 10.17984375 3.39765625 9.83984375 5.09765625 C5.50651042 5.09765625 1.17317708 5.09765625 -3.16015625 5.09765625 C-3.72265625 3.16015625 -3.72265625 3.16015625 -4.16015625 1.09765625 C-3.16015625 0.09765625 -3.16015625 0.09765625 0 0 Z " fill="#4123D9" transform="translate(398.16015625,204.90234375)"/>
<path d="M0 0 C0.33 0.66 0.66 1.32 1 2 C1.66 2 2.32 2 3 2 C3.10655578 8.44070471 2.96205088 14.62641289 2 21 C1.34 20.01 0.68 19.02 0 18 C-0.66 18.33 -1.32 18.66 -2 19 C-1.85870713 16.58299013 -1.71213513 14.16649571 -1.5625 11.75 C-1.52318359 11.06808594 -1.48386719 10.38617188 -1.44335938 9.68359375 C-1.23333528 6.35551959 -0.98065998 3.19744598 0 0 Z " fill="#066CEE" transform="translate(203,178)"/>
<path d="M0 0 C1 3 1 3 0 5.4375 C-3.14300844 9.46447957 -6.41673412 11.50042627 -11.36328125 12.45703125 C-17.58465265 12.87307942 -21.30318434 11.13265674 -26.28515625 7.5078125 C-28 6 -28 6 -29 4 C-27.68 3.34 -26.36 2.68 -25 2 C-25 3.65 -25 5.3 -25 7 C-24.05125 7.309375 -23.1025 7.61875 -22.125 7.9375 C-19 9 -19 9 -17 10 C-12.2594919 10.55163629 -12.2594919 10.55163629 -8.25 8.5 C-7.8375 8.005 -7.425 7.51 -7 7 C-6.01 7 -5.02 7 -4 7 C-4 6.01 -4 5.02 -4 4 C-3.01 4 -2.02 4 -1 4 C-0.67 2.68 -0.34 1.36 0 0 Z " fill="#2CA4DD" transform="translate(201,221)"/>
<path d="M0 0 C0 1.98 0 3.96 0 6 C-0.33 4.68 -0.66 3.36 -1 2 C-2.23267348 3.00836062 -2.23267348 3.00836062 -2.09765625 5.06640625 C-2.08605469 5.89011719 -2.07445312 6.71382812 -2.0625 7.5625 C-2.05347656 8.38878906 -2.04445313 9.21507812 -2.03515625 10.06640625 C-2.02355469 10.70449219 -2.01195312 11.34257812 -2 12 C-4.31 12 -6.62 12 -9 12 C-8.34 11.01 -7.68 10.02 -7 9 C-6.71337567 4.85223727 -6.71337567 4.85223727 -8 1 C-5.07175348 0.02391783 -3.04386724 -0.08226668 0 0 Z " fill="#4824E0" transform="translate(520,162)"/>
<path d="M0 0 C-0.79792969 0.56074219 -1.59585938 1.12148437 -2.41796875 1.69921875 C-6.67051983 5.95176983 -6.0495612 12.15773179 -6.3125 17.8125 C-6.38533203 18.98232422 -6.45816406 20.15214844 -6.53320312 21.35742188 C-6.70954831 24.23772656 -6.86437343 27.11753839 -7 30 C-7.33 30 -7.66 30 -8 30 C-8.02917234 26.12501596 -8.04685673 22.25006042 -8.0625 18.375 C-8.07087891 17.28058594 -8.07925781 16.18617188 -8.08789062 15.05859375 C-8.09111328 13.99511719 -8.09433594 12.93164062 -8.09765625 11.8359375 C-8.10289307 10.86188965 -8.10812988 9.8878418 -8.11352539 8.88427734 C-7.99414506 5.85124679 -7.55866724 2.98084732 -7 0 C-3.86650268 -1.04449911 -3.01031744 -0.93423645 0 0 Z " fill="#1B5DE4" transform="translate(214,155)"/>
<path d="M0 0 C34.37225423 -1.58746378 34.37225423 -1.58746378 45 8 C40 7 35 6 30 5 C30 4.34 30 3.68 30 3 C20.1 2.34 10.2 1.68 0 1 C0 0.67 0 0.34 0 0 Z " fill="#2642D4" transform="translate(151,104)"/>
<path d="M0 0 C3.96873434 1.32291145 4.29905037 2.91149738 6.1875 6.5625 C6.71730469 7.57441406 7.24710938 8.58632812 7.79296875 9.62890625 C8.19128906 10.41136719 8.58960938 11.19382813 9 12 C7.68 12.33 6.36 12.66 5 13 C5 11.68 5 10.36 5 9 C4.34 8.67 3.68 8.34 3 8 C2.67 7.34 2.34 6.68 2 6 C-0.64 7.98 -3.28 9.96 -6 12 C-4.43358249 7.69235185 -2.31663844 3.93828536 0 0 Z " fill="#E8E6F9" transform="translate(578,203)"/>
<path d="M0 0 C0.66 0 1.32 0 2 0 C2.33 1.32 2.66 2.64 3 4 C4.65 4.33 6.3 4.66 8 5 C8.86516528 9.49885947 9.30903272 12.01647791 7 16 C0 5.23282443 0 5.23282443 0 0 Z " fill="#12A8E4" transform="translate(86,218)"/>
<path d="M0 0 C0.33 0 0.66 0 1 0 C1.02505615 0.63502441 1.0501123 1.27004883 1.07592773 1.92431641 C1.19256789 4.82471542 1.31498393 7.72484349 1.4375 10.625 C1.47681641 11.62402344 1.51613281 12.62304688 1.55664062 13.65234375 C1.76572614 18.50956104 2.02958555 23.22132044 3 28 C2.34 28 1.68 28 1 28 C1 27.34 1 26.68 1 26 C0.34 26 -0.32 26 -1 26 C-1.12375 26.7425 -1.2475 27.485 -1.375 28.25 C-1.95486701 30.80141485 -2.73708739 32.7267573 -4 35 C-5 33 -5 33 -4.4765625 31.01171875 C-4.19554687 30.24472656 -3.91453125 29.47773438 -3.625 28.6875 C-1.25942923 22.17665334 -0.75019711 16.06171024 -0.4375 9.1875 C-0.39431641 8.30384766 -0.35113281 7.42019531 -0.30664062 6.50976562 C-0.20108464 4.34000377 -0.10008929 2.1700209 0 0 Z " fill="#2E7ADE" transform="translate(231,180)"/>
<path d="M0 0 C3.21043882 1.38188453 5.04936365 2.92421903 7.25 5.625 C7.77078125 6.25664062 8.2915625 6.88828125 8.828125 7.5390625 C9.40820312 8.26222656 9.40820312 8.26222656 10 9 C7.1394109 7.64062915 5.14072301 6.35479531 3 4 C1.65716351 6.68567297 1.75712481 8.87746853 1.6875 11.875 C1.65011719 12.92429688 1.61273438 13.97359375 1.57421875 15.0546875 C2.09237019 18.63896444 3.24490761 19.75027959 6 22 C3 22 3 22 0.796875 20.578125 C-1.91245832 16.69082066 -1.20034345 13.32491755 -0.75 8.75 C-0.68425781 7.90953125 -0.61851562 7.0690625 -0.55078125 6.203125 C-0.38617731 4.13381836 -0.19560475 2.06660669 0 0 Z " fill="#3183D9" transform="translate(145,181)"/>
<path d="M0 0 C0.66 0 1.32 0 2 0 C2.433125 0.639375 2.86625 1.27875 3.3125 1.9375 C5.40849852 4.49927596 6.78299472 4.65221564 10 5 C10.33 4.01 10.66 3.02 11 2 C11.99 1.67 12.98 1.34 14 1 C13.70381606 4.55420724 13.19662957 5.80337043 10.625 8.375 C9.75875 8.91125 8.8925 9.4475 8 10 C4.69713914 8.89904638 4.21489099 8.3103981 2.3125 5.5625 C1.65701172 4.63630859 1.65701172 4.63630859 0.98828125 3.69140625 C0 2 0 2 0 0 Z " fill="#18B0DE" transform="translate(94,234)"/>
<path d="M0 0 C0.33 0 0.66 0 1 0 C1.33 4.62 1.66 9.24 2 14 C4.64 13.67 7.28 13.34 10 13 C10 12.34 10 11.68 10 11 C10.66 11 11.32 11 12 11 C12 12.65 12 14.3 12 16 C8.04 16 4.08 16 0 16 C0 10.72 0 5.44 0 0 Z " fill="#4626FA" transform="translate(420,205)"/>
<path d="M0 0 C2.2343058 4.31965788 3.12133791 7.44864876 2.87890625 12.32421875 C2.83056641 13.35224609 2.78222656 14.38027344 2.73242188 15.43945312 C2.67634766 16.51130859 2.62027344 17.58316406 2.5625 18.6875 C2.51029297 19.77095703 2.45808594 20.85441406 2.40429688 21.97070312 C2.27458784 24.64742591 2.13962067 27.32377888 2 30 C1.67 30 1.34 30 1 30 C0.34 27.36 -0.32 24.72 -1 22 C-0.34 22 0.32 22 1 22 C0.85764543 20.27054347 0.71095618 18.54144346 0.5625 16.8125 C0.48128906 15.84957031 0.40007812 14.88664063 0.31640625 13.89453125 C0.05136541 11.0249207 0.05136541 11.0249207 -0.5625 8.34375 C-1.11837307 5.36585854 -0.61590013 2.94263396 0 0 Z " fill="#0B64FB" transform="translate(241,169)"/>
<path d="M0 0 C4.52293008 0.55901383 7.84950502 2.47006142 11.625 4.875 C12.19734375 5.22691406 12.7696875 5.57882813 13.359375 5.94140625 C16.20753142 7.72315992 18.76400575 9.47855967 21 12 C20.67 12.99 20.34 13.98 20 15 C19.01 15.33 18.02 15.66 17 16 C17 15.34 17 14.68 17 14 C17.66 14 18.32 14 19 14 C18.505 13.54625 18.01 13.0925 17.5 12.625 C16 11 16 11 16 9 C15.030625 8.87625 14.06125 8.7525 13.0625 8.625 C12.051875 8.41875 11.04125 8.2125 10 8 C9.67 7.34 9.34 6.68 9 6 C8.071875 5.7834375 8.071875 5.7834375 7.125 5.5625 C4.59314048 4.89230189 3.70786571 3.94075649 2 2 C1.34 1.34 0.68 0.68 0 0 Z " fill="#2444DC" transform="translate(196,112)"/>
<path d="M0 0 C5.78021029 0.157356 10.043344 3.02680482 13.98828125 7.10546875 C15.16985268 8.50671261 16.28072707 9.96707075 17.375 11.4375 C14.81073501 10.33852929 13.34154483 9.40080723 11.4375 7.3125 C8.84160783 4.95259802 7.76906963 5.35264826 4.375 5.4375 C3.735625 4.9425 3.09625 4.4475 2.4375 3.9375 C-0.3199169 1.93210589 -2.29820074 2.21067278 -5.625 2.4375 C-3.625 0.4375 -3.625 0.4375 0 0 Z " fill="#1F52D9" transform="translate(137.625,142.5625)"/>
<path d="M0 0 C-0.33 0.66 -0.66 1.32 -1 2 C-7.4556962 2.12658228 -7.4556962 2.12658228 -10.6875 1.375 C-13.48337396 0.92161503 -14.6441079 1.51666053 -17 3 C-14.57961783 -0.75159236 -14.57961783 -0.75159236 -12.25 -1.75 C-4 -2.66666667 -4 -2.66666667 0 0 Z " fill="#E7E3F9" transform="translate(521,178)"/>
<path d="M0 0 C3 4.38461538 3 4.38461538 3 7 C-0.96 7 -4.92 7 -9 7 C-7.68 5.68 -6.36 4.36 -5 3 C-4.46375 2.4225 -3.9275 1.845 -3.375 1.25 C-2 0 -2 0 0 0 Z " fill="#4926F3" transform="translate(601,214)"/>
<path d="M0 0 C5.61 0 11.22 0 17 0 C16.67 0.99 16.34 1.98 16 3 C12.04 3 8.08 3 4 3 C4.33 4.32 4.66 5.64 5 7 C3.5 5.625 3.5 5.625 2 4 C2 3.34 2 2.68 2 2 C1.34 2 0.68 2 0 2 C0 1.34 0 0.68 0 0 Z " fill="#5542CD" transform="translate(552,163)"/>
<path d="M0 0 C3.96 0 7.92 0 12 0 C12 2.31 12 4.62 12 7 C12.66 7 13.32 7 14 7 C14.33 6.01 14.66 5.02 15 4 C15.33 4.66 15.66 5.32 16 6 C15.01 7.32 14.02 8.64 13 10 C11.68 9.67 10.36 9.34 9 9 C8.67 7.35 8.34 5.7 8 4 C8.66 4 9.32 4 10 4 C10.33 3.01 10.66 2.02 11 1 C7.37 1 3.74 1 0 1 C0 0.67 0 0.34 0 0 Z " fill="#3A1CDB" transform="translate(487,164)"/>
<path d="M0 0 C0.66 0.33 1.32 0.66 2 1 C1.35546875 1.6909375 0.7109375 2.381875 0.046875 3.09375 C-2.34095946 6.48411038 -2.5775673 8.39993365 -2.75 12.5 C-2.80671875 13.6034375 -2.8634375 14.706875 -2.921875 15.84375 C-2.98922162 18.56455344 -3.0203091 21.27857994 -3 24 C-3.66 24.33 -4.32 24.66 -5 25 C-5.21050881 8.34641392 -5.21050881 8.34641392 -4 3 C-1.9375 1 -1.9375 1 0 0 Z " fill="#0A5FF9" transform="translate(200,151)"/>
<path d="M0 0 C0.66 0.33 1.32 0.66 2 1 C1.67 1.99 1.34 2.98 1 4 C1.99 3.67 2.98 3.34 4 3 C5.72795352 2.93197033 7.45835365 2.91504355 9.1875 2.9375 C10.08855469 2.94652344 10.98960937 2.95554688 11.91796875 2.96484375 C12.60503906 2.97644531 13.29210937 2.98804688 14 3 C14 3.66 14 4.32 14 5 C13.43152344 4.97679687 12.86304688 4.95359375 12.27734375 4.9296875 C7.07441352 4.80808312 2.92687757 5.32276508 -2 7 C-2.66 5.68 -3.32 4.36 -4 3 C-2.68 2.01 -1.36 1.02 0 0 Z " fill="#4122DF" transform="translate(506,172)"/>
<path d="M0 0 C0.721875 0.598125 1.44375 1.19625 2.1875 1.8125 C4.90897537 4.02474039 4.90897537 4.02474039 7.75 5.625 C10 7 10 7 11 9 C8.08517222 9.80967438 6.53886783 10.21845993 3.6875 9.0625 C3.130625 8.711875 2.57375 8.36125 2 8 C2.33 6.68 2.66 5.36 3 4 C2.01 4.33 1.02 4.66 0 5 C-0.33 4.34 -0.66 3.68 -1 3 C-0.67 2.01 -0.34 1.02 0 0 Z " fill="#0A5FF3" transform="translate(148,149)"/>
<path d="M0 0 C-6.93607661 2.54322809 -13.69354394 3.94915607 -21 5 C-21 4.34 -21 3.68 -21 3 C-17.10744687 1.16821029 -14.25444959 1 -10 1 C-8.96875 0.649375 -7.9375 0.29875 -6.875 -0.0625 C-3.83865946 -1.05261105 -2.92913691 -0.89885532 0 0 Z " fill="#20BCD9" transform="translate(192,266)"/>
<path d="M0 0 C0.33 0 0.66 0 1 0 C0.80972215 10.03283187 0.80972215 10.03283187 -2.25 13.6875 C-5.13438168 15.06413671 -6.85018014 15.35997941 -10 15 C-8 12 -8 12 -5.375 11.3125 C-4.59125 11.209375 -3.8075 11.10625 -3 11 C-3 10.01 -3 9.02 -3 8 C-2.34 8 -1.68 8 -1 8 C-0.67 5.36 -0.34 2.72 0 0 Z " fill="#169CE1" transform="translate(131,212)"/>
<path d="M0 0 C0.33 0.66 0.66 1.32 1 2 C0.01 3.485 0.01 3.485 -1 5 C2.96 5.33 6.92 5.66 11 6 C11 6.66 11 7.32 11 8 C6.05 8 1.1 8 -4 8 C-2 3 -2 3 0 0 Z " fill="#503BCC" transform="translate(556,215)"/>
<path d="M0 0 C2.7885289 -0.22107787 5.34653181 -0.28107535 8.125 -0.1875 C8.87910156 -0.17396484 9.63320313 -0.16042969 10.41015625 -0.14648438 C12.27374127 -0.11109985 14.13695978 -0.05729167 16 0 C15.34 1.32 14.68 2.64 14 4 C13.67 3.34 13.34 2.68 13 2 C8.71 2 4.42 2 0 2 C0 2.66 0 3.32 0 4 C-0.66 3.67 -1.32 3.34 -2 3 C-1.34 2.01 -0.68 1.02 0 0 Z " fill="#5541CC" transform="translate(591,163)"/>
<path d="M0 0 C1 3 1 3 0 6 C-1.7776007 8.42190905 -2.70662492 8.94438186 -5.69921875 9.51171875 C-6.68535156 9.56972656 -7.67148438 9.62773437 -8.6875 9.6875 C-9.68136719 9.75324219 -10.67523438 9.81898438 -11.69921875 9.88671875 C-12.45847656 9.92410156 -13.21773437 9.96148437 -14 10 C-13.67 9.34 -13.34 8.68 -13 8 C-12.29875 7.896875 -11.5975 7.79375 -10.875 7.6875 C-6.92451237 6.74281818 -4.05674449 4.63767468 -1 2 C-0.67 1.34 -0.34 0.68 0 0 Z " fill="#E1E6F7" transform="translate(217,124)"/>
<path d="M0 0 C0.33 0.99 0.66 1.98 1 3 C-0.28965176 4.37562854 -1.62689293 5.70766393 -3 7 C-3.66 7 -4.32 7 -5 7 C-5.33 8.32 -5.66 9.64 -6 11 C-7.32 11.33 -8.64 11.66 -10 12 C-10 9 -10 9 -7.8125 6.5625 C-5.28225355 4.25716434 -2.70944196 2.09014094 0 0 Z " fill="#0FA6E9" transform="translate(116,217)"/>
<path d="M0 0 C4.36740035 6.55110052 6.27392112 15.19465209 7 23 C6.34 22.34 5.68 21.68 5 21 C5 19.68 5 18.36 5 17 C4.34 17 3.68 17 3 17 C2.49453964 14.91798472 1.99583165 12.83432933 1.5 10.75 C1.2215625 9.58984375 0.943125 8.4296875 0.65625 7.234375 C0 4 0 4 0 0 Z " fill="#2851D7" transform="translate(237,152)"/>
<path d="M0 0 C0.66 0 1.32 0 2 0 C0.27933894 5.44876003 -1.84705349 10.71169451 -4 16 C-4.33 16 -4.66 16 -5 16 C-5.05416188 14.39620659 -5.09286638 12.79188594 -5.125 11.1875 C-5.14820312 10.29417969 -5.17140625 9.40085938 -5.1953125 8.48046875 C-5 6 -5 6 -3 3 C-2.01 3 -1.02 3 0 3 C0 2.01 0 1.02 0 0 Z " fill="#E5F1F8" transform="translate(89,145)"/>
<path d="M0 0 C0.66 0.33 1.32 0.66 2 1 C3.32227764 5.34937867 3.11479353 9.81123392 3.0625 14.3125 C3.05798828 15.05306641 3.05347656 15.79363281 3.04882812 16.55664062 C3.03712175 18.37112899 3.01918898 20.18557534 3 22 C2.67 22 2.34 22 2 22 C1.92652344 20.75283203 1.92652344 20.75283203 1.8515625 19.48046875 C1.77679688 18.39378906 1.70203125 17.30710938 1.625 16.1875 C1.55539062 15.10855469 1.48578125 14.02960938 1.4140625 12.91796875 C1.18804267 9.81373814 1.18804267 9.81373814 -1 7 C-0.625 3.3125 -0.625 3.3125 0 0 Z " fill="#3A20D8" transform="translate(473,178)"/>
<path d="M0 0 C0.66 0 1.32 0 2 0 C4.125 5.625 4.125 5.625 3 9 C-3.6 9 -10.2 9 -17 9 C-17 8.67 -17 8.34 -17 8 C-11.06 8 -5.12 8 1 8 C0.67 5.36 0.34 2.72 0 0 Z " fill="#4C28F8" transform="translate(396,180)"/>
<path d="M0 0 C0.99 0.33 1.98 0.66 3 1 C1.89932004 1.81721717 0.79430269 2.62859451 -0.3125 3.4375 C-0.92738281 3.88996094 -1.54226563 4.34242188 -2.17578125 4.80859375 C-5.66668762 7.08852189 -8.63690371 7.11015407 -12.6875 7.0625 C-13.68136719 7.05347656 -14.67523438 7.04445312 -15.69921875 7.03515625 C-16.83810547 7.01775391 -16.83810547 7.01775391 -18 7 C-15.62124245 4.62124245 -14.87533968 4.71596941 -11.625 4.5 C-6.80111952 4.17733241 -4.00233027 2.66822018 0 0 Z " fill="#4223D9" transform="translate(394,168)"/>
<path d="M0 0 C0.33 0.99 0.66 1.98 1 3 C-0.07421875 4.68359375 -0.07421875 4.68359375 -1.6875 6.4375 C-2.24050781 7.0459375 -2.79351562 7.654375 -3.36328125 8.28125 C-5.21090202 10.22147228 -7.06856563 12.14285157 -9 14 C-9.66 13.67 -10.32 13.34 -11 13 C-9.92027262 11.5805831 -8.83604137 10.1645917 -7.75 8.75 C-6.84507813 7.56664062 -6.84507813 7.56664062 -5.921875 6.359375 C-4.06817005 4.08368843 -2.11101046 2.03628442 0 0 Z " fill="#1A58E3" transform="translate(104,129)"/>
<path d="M0 0 C0.66 0.33 1.32 0.66 2 1 C1.35933594 1.44730469 0.71867188 1.89460938 0.05859375 2.35546875 C-4.98020472 5.87737111 -10.00481918 9.41650072 -15 13 C-15 12.01 -15 11.02 -15 10 C-14.34 10 -13.68 10 -13 10 C-13 9.34 -13 8.68 -13 8 C-12.01 8 -11.02 8 -10 8 C-9.731875 7.38125 -9.46375 6.7625 -9.1875 6.125 C-7.4321693 2.98388191 -5.34337135 2.11445712 -2 1 C-1.34 0.67 -0.68 0.34 0 0 Z " fill="#1A53E0" transform="translate(128,126)"/>
<path d="M0 0 C0.33 0 0.66 0 1 0 C1 4.95 1 9.9 1 15 C-2 12 -2 12 -2.29296875 9.73828125 C-2.25816406 8.93777344 -2.22335937 8.13726562 -2.1875 7.3125 C-2.16042969 6.50425781 -2.13335938 5.69601563 -2.10546875 4.86328125 C-2.07066406 4.24839844 -2.03585937 3.63351563 -2 3 C-2.99 2.67 -3.98 2.34 -5 2 C-3.68 2 -2.36 2 -1 2 C-0.67 1.34 -0.34 0.68 0 0 Z " fill="#644AE8" transform="translate(520,162)"/>
<path d="M0 0 C0.99 0.33 1.98 0.66 3 1 C3.33 1.99 3.66 2.98 4 4 C2.02 5.32 0.04 6.64 -2 8 C-2.66 6.35 -3.32 4.7 -4 3 C-2.68 2.67 -1.36 2.34 0 2 C0 1.34 0 0.68 0 0 Z " fill="#10B0E7" transform="translate(212,248)"/>
<path d="M0 0 C1.33332095 2.6666419 0.67102033 4.16680303 0 7 C2.64 6.67 5.28 6.34 8 6 C8 6.66 8 7.32 8 8 C3.71 8 -0.58 8 -5 8 C-3.35 5.36 -1.7 2.72 0 0 Z " fill="#4A28F5" transform="translate(559,213)"/>
<path d="M0 0 C0.66 0.33 1.32 0.66 2 1 C0.66937406 4.99187781 -1.00640811 7.09995785 -4 10 C-5.23512079 12.13309192 -5.23512079 12.13309192 -6 14 C-6.50547389 8.6925242 -5.22743563 6.17668141 -2 2 C-1.34 1.34 -0.68 0.68 0 0 Z " fill="#1656E1" transform="translate(130,145)"/>
<path d="M0 0 C0.99 0.33 1.98 0.66 3 1 C3 1.66 3 2.32 3 3 C2.01 3 1.02 3 0 3 C0 4.65 0 6.3 0 8 C0.66 8.33 1.32 8.66 2 9 C0.35 9 -1.3 9 -3 9 C-3.1875 5.625 -3.1875 5.625 -3 2 C-2.01 1.34 -1.02 0.68 0 0 Z " fill="#4A25F2" transform="translate(536,144)"/>
<path d="M0 0 C0 0.66 0 1.32 0 2 C-4.95 2 -9.9 2 -15 2 C-15 1.34 -15 0.68 -15 0 C-13.06325815 -0.19517554 -11.12555991 -0.38087873 -9.1875 -0.5625 C-8.10855469 -0.66691406 -7.02960937 -0.77132812 -5.91796875 -0.87890625 C-3 -1 -3 -1 0 0 Z " fill="#503ECD" transform="translate(607,221)"/>
<path d="M0 0 C0.33 0.99 0.66 1.98 1 3 C-0.0828125 3.5878125 -0.0828125 3.5878125 -1.1875 4.1875 C-4.227326 6.14649898 -6.52127727 8.37963597 -9 11 C-8.814375 10.38125 -8.62875 9.7625 -8.4375 9.125 C-7.76313824 6.95839822 -7.76313824 6.95839822 -9 5 C-7.68 4.67 -6.36 4.34 -5 4 C-5 3.34 -5 2.68 -5 2 C-2 0 -2 0 0 0 Z " fill="#4D31DF" transform="translate(443,173)"/>
<path d="M0 0 C0 1.32 0 2.64 0 4 C-0.5775 4.0825 -1.155 4.165 -1.75 4.25 C-4.6159304 5.20531013 -5.9990764 6.78469173 -8 9 C-8.125 6.125 -8.125 6.125 -8 3 C-5.48696401 0.48696401 -3.51117809 0 0 0 Z " fill="#055EFA" transform="translate(138,144)"/>
<path d="M0 0 C4.01686987 -0.46707789 5.56501812 -0.32150834 8.875 2.125 C11.32150834 5.43498188 11.46707789 6.98313013 11 11 C10.01 11.495 10.01 11.495 9 12 C8.67 9.36 8.34 6.72 8 4 C6.68 3.67 5.36 3.34 4 3 C4 2.34 4 1.68 4 1 C2.68 0.67 1.36 0.34 0 0 Z " fill="#4F3AD0" transform="translate(534,139)"/>
<path d="M0 0 C0.90878906 0.2165625 0.90878906 0.2165625 1.8359375 0.4375 C7.98654607 1.80009636 13.71013545 2.24088843 20 2 C18 4 18 4 15.86328125 4.265625 C10.53468975 4.23298432 5.9990772 3.9145402 1 2 C0.67 1.34 0.34 0.68 0 0 Z " fill="#3E28D4" transform="translate(371,220)"/>
<path d="M0 0 C1.32 0.33 2.64 0.66 4 1 C4.020625 1.70125 4.04125 2.4025 4.0625 3.125 C5.44979209 7.3793624 8.51624172 9.35307139 12 12 C11.01 12.495 11.01 12.495 10 13 C8.70450101 11.90033225 7.41373929 10.79508199 6.125 9.6875 C5.40570313 9.07261719 4.68640625 8.45773438 3.9453125 7.82421875 C2 6 2 6 0 3 C0 2.01 0 1.02 0 0 Z " fill="#3B21D7" transform="translate(358,207)"/>
<path d="M0 0 C0.33 0 0.66 0 1 0 C1.14285714 7.42857143 1.14285714 7.42857143 0 11 C-0.66 11 -1.32 11 -2 11 C-2 10.01 -2 9.02 -2 8 C-2.66 7.67 -3.32 7.34 -4 7 C-1.125 1.125 -1.125 1.125 0 0 Z " fill="#0286F4" transform="translate(239,205)"/>
<path d="M0 0 C8.63502756 -0.4390692 8.63502756 -0.4390692 13 3 C13.33 3.66 13.66 4.32 14 5 C13.34 5 12.68 5 12 5 C11.67 5.99 11.34 6.98 11 8 C10.505 6.824375 10.505 6.824375 10 5.625 C7.1172783 1.84142777 4.60565207 1.83052742 0 1 C0 0.67 0 0.34 0 0 Z " fill="#EBEAF9" transform="translate(444,175)"/>
<path d="M0 0 C-2.85276137 2.93200474 -5.65079784 5.64315404 -9 8 C-8.64005447 5.3364031 -8.28838998 3.41816548 -6.75 1.1875 C-4.41988723 -0.39364795 -2.75498245 -0.22337696 0 0 Z " fill="#E1EBF9" transform="translate(115,119)"/>
<path d="M0 0 C1 3 1 3 -0.125 5.5 C-2.19701187 8.26268249 -3.86009084 9.58704088 -7 11 C-7.99 10.67 -8.98 10.34 -10 10 C-8.6875 8.5 -8.6875 8.5 -7 7 C-6.01 7 -5.02 7 -4 7 C-4 6.01 -4 5.02 -4 4 C-3.01 4 -2.02 4 -1 4 C-0.67 2.68 -0.34 1.36 0 0 Z " fill="#1A96DA" transform="translate(201,221)"/>
<path d="M0 0 C3.83132316 1.56090944 6.1075134 4.1075134 9 7 C9.99 7.33 10.98 7.66 12 8 C12.33 8.99 12.66 9.98 13 11 C10 11 10 11 7.51953125 8.84765625 C6.62621094 7.92855469 5.73289063 7.00945312 4.8125 6.0625 C3.91144531 5.14597656 3.01039063 4.22945312 2.08203125 3.28515625 C0 1 0 1 0 0 Z " fill="#289CDC" transform="translate(160,213)"/>
<path d="M0 0 C0.99 0.33 1.98 0.66 3 1 C1.8141763 4.37503669 0.72426311 6.64722731 -2 9 C-2.6875 6.1875 -2.6875 6.1875 -3 3 C-1.5625 1.125 -1.5625 1.125 0 0 Z " fill="#EDEDF8" transform="translate(554,212)"/>
<path d="M0 0 C0.99 0.33 1.98 0.66 3 1 C0.69472317 4.45791525 -0.28260484 4.53033215 -4 6 C-5.70294787 7.28667172 -7.37946188 8.61096733 -9 10 C-9.66 9.67 -10.32 9.34 -11 9 C-9.23977508 7.46690087 -7.46646537 5.94881299 -5.6875 4.4375 C-4.70136719 3.59058594 -3.71523437 2.74367187 -2.69921875 1.87109375 C-1.80847656 1.25363281 -0.91773438 0.63617188 0 0 Z " fill="#2550DC" transform="translate(214,138)"/>
<path d="M0 0 C1.32 0 2.64 0 4 0 C4.33 1.32 4.66 2.64 5 4 C-0.61 3.67 -6.22 3.34 -12 3 C-12 2.67 -12 2.34 -12 2 C-11.21753906 1.93941406 -10.43507812 1.87882812 -9.62890625 1.81640625 C-8.61699219 1.73261719 -7.60507813 1.64882812 -6.5625 1.5625 C-5.55316406 1.48128906 -4.54382813 1.40007812 -3.50390625 1.31640625 C-1.06359221 1.26788532 -1.06359221 1.26788532 0 0 Z " fill="#E6EFFB" transform="translate(170,101)"/>
<path d="M0 0 C0.99 0 1.98 0 3 0 C3.6875 1.8125 3.6875 1.8125 4 4 C2.5625 5.75 2.5625 5.75 1 7 C1 6.01 1 5.02 1 4 C0.01 4.99 -0.98 5.98 -2 7 C-2 3 -2 3 0 0 Z " fill="#4421E4" transform="translate(587,185)"/>
<path d="M0 0 C4.95 1.98 4.95 1.98 10 4 C10 4.66 10 5.32 10 6 C7.03 5.67 4.06 5.34 1 5 C0.67 3.35 0.34 1.7 0 0 Z " fill="#EEEBF7" transform="translate(530,152)"/>
<path d="M0 0 C1.32 0 2.64 0 4 0 C5.8125 2.25 5.8125 2.25 7 5 C6.6875 7.3125 6.6875 7.3125 6 9 C3.59927045 6.11912454 1.52708963 3.43595166 0 0 Z " fill="#EDEEF7" transform="translate(302,153)"/>
<path d="M0 0 C0.99 0.33 1.98 0.66 3 1 C3 1.66 3 2.32 3 3 C4.32 2.67 5.64 2.34 7 2 C7.33 2.99 7.66 3.98 8 5 C4.04 4.67 0.08 4.34 -4 4 C-2.68 3.67 -1.36 3.34 0 3 C0 2.01 0 1.02 0 0 Z " fill="#06C4E2" transform="translate(150,265)"/>
<path d="M0 0 C0.66 0 1.32 0 2 0 C4.24828052 4.49656104 4.16682272 8.07872966 4 13 C1.12420019 8.68630028 0 5.19265239 0 0 Z " fill="#1592DE" transform="translate(82,205)"/>
<path d="M0 0 C0.763125 0.20625 1.52625 0.4125 2.3125 0.625 C1.9825 1.615 1.6525 2.605 1.3125 3.625 C-0.6675 3.955 -2.6475 4.285 -4.6875 4.625 C-5.0175 3.635 -5.3475 2.645 -5.6875 1.625 C-2.6875 -0.375 -2.6875 -0.375 0 0 Z " fill="#EEECF5" transform="translate(513.6875,159.375)"/>
<path d="M0 0 C2.875 0.25 2.875 0.25 6 1 C7.375 3.0625 7.375 3.0625 8 5 C7.34 5.66 6.68 6.32 6 7 C4.02 4.69 2.04 2.38 0 0 Z " fill="#EAF2F7" transform="translate(150,148)"/>
<path d="M0 0 C0.33 0.66 0.66 1.32 1 2 C-1.03014771 5.84659566 -3.56941824 9.39603395 -6 13 C-6.66 12.67 -7.32 12.34 -8 12 C-5.36 8.04 -2.72 4.08 0 0 Z " fill="#E9E4FB" transform="translate(599,176)"/>
<path d="M0 0 C3.3 0.33 6.6 0.66 10 1 C10 1.33 10 1.66 10 2 C3.375 4 3.375 4 0 4 C0 2.68 0 1.36 0 0 Z " fill="#E9EAF7" transform="translate(529,137)"/>
<path d="M0 0 C2.125 0.9375 2.125 0.9375 4 2 C4 2.99 4 3.98 4 5 C3.67 4.67 3.34 4.34 3 4 C-0.84597567 3.67950203 -3.50971852 4.40444275 -7 6 C-2.25 1.125 -2.25 1.125 0 0 Z " fill="#1D44DA" transform="translate(223,132)"/>
<path d="M0 0 C0.8971875 0.5259375 0.8971875 0.5259375 1.8125 1.0625 C1.4825 2.0525 1.1525 3.0425 0.8125 4.0625 C-2.74530196 3.45259109 -5.8703589 2.4841319 -9.1875 1.0625 C-8.589375 0.918125 -7.99125 0.77375 -7.375 0.625 C-1.85416667 -0.79464286 -1.85416667 -0.79464286 0 0 Z " fill="#2653E6" transform="translate(194.1875,121.9375)"/>
<path d="M0 0 C0.33 1.32 0.66 2.64 1 4 C0.01 4.33 -0.98 4.66 -2 5 C-2.70151152 6.3153341 -3.36525925 7.65117592 -4 9 C-5.625 10.75 -5.625 10.75 -7 12 C-7.66 11.67 -8.32 11.34 -9 11 C-8.43410156 10.37351563 -7.86820313 9.74703125 -7.28515625 9.1015625 C-6.18494141 7.87566406 -6.18494141 7.87566406 -5.0625 6.625 C-4.33160156 5.81289062 -3.60070312 5.00078125 -2.84765625 4.1640625 C-0.97010529 2.14075833 -0.97010529 2.14075833 0 0 Z " fill="#2C9CDC" transform="translate(219,226)"/>
<path d="M0 0 C-1.75 3.875 -1.75 3.875 -4 5 C-4.72159424 6.64363134 -5.39351421 8.31050386 -6 10 C-6.66 9.67 -7.32 9.34 -8 9 C-6.68994234 5.06982701 -4.75047804 0 0 0 Z " fill="#EDE8FB" transform="translate(443,176)"/>
<path d="M0 0 C0.99552499 3.09718886 0.89921243 4.90271275 0 8 C0 8.99 0 9.98 0 11 C-0.66 11 -1.32 11 -2 11 C-2.33 11.99 -2.66 12.98 -3 14 C-2.48594831 9.03083364 -1.76615118 4.70973649 0 0 Z " fill="#1A65DC" transform="translate(85,159)"/>
<path d="M0 0 C4.29 0.33 8.58 0.66 13 1 C13 1.33 13 1.66 13 2 C9.37 2.33 5.74 2.66 2 3 C2 2.34 2 1.68 2 1 C1.34 0.67 0.68 0.34 0 0 Z " fill="#E8EEF7" transform="translate(167,119)"/>
<path d="M0 0 C0.33 0.66 0.66 1.32 1 2 C0.01 2.495 0.01 2.495 -1 3 C-1.33 3.99 -1.66 4.98 -2 6 C-4.82115184 7.07009208 -6.90544541 7 -10 7 C-8.60148274 4.20296548 -6.86309036 4.13191945 -4 3 C-2.63634717 2.04175747 -1.29205831 1.05278825 0 0 Z " fill="#D2F4F9" transform="translate(109,238)"/>
<path d="M0 0 C1.875 0.25 1.875 0.25 4 1 C5.25 3.0625 5.25 3.0625 6 5 C3.69 5 1.38 5 -1 5 C-0.67 3.35 -0.34 1.7 0 0 Z " fill="#EDEBF6" transform="translate(319,208)"/>
<path d="M0 0 C-0.99 1.485 -0.99 1.485 -2 3 C-5.375 3.625 -5.375 3.625 -9 4 C-10.33917261 4.30903983 -11.67653254 4.62942911 -13 5 C-9.37863252 0.80683766 -5.43991867 -0.3108525 0 0 Z " fill="#482CD7" transform="translate(378,163)"/>
<path d="M0 0 C-0.33 1.65 -0.66 3.3 -1 5 C-3.07553648 5.5534764 -4.84365964 6 -7 6 C-7 5.34 -7 4.68 -7 4 C-2.52941176 0 -2.52941176 0 0 0 Z " fill="#02ADF2" transform="translate(212,239)"/>
<path d="M0 0 C1.65 0.33 3.3 0.66 5 1 C2.28817788 3.60334924 1.10866187 3.99456691 -2.75 4.1875 C-3.8225 4.125625 -4.895 4.06375 -6 4 C-5.67 3.34 -5.34 2.68 -5 2 C-3.35 2 -1.7 2 0 2 C0 1.34 0 0.68 0 0 Z " fill="#06A9F2" transform="translate(190,228)"/>
<path d="M0 0 C0.33 0 0.66 0 1 0 C1.66 3.3 2.32 6.6 3 10 C1.68 9.67 0.36 9.34 -1 9 C-1.125 2.25 -1.125 2.25 0 0 Z " fill="#DEDCF6" transform="translate(354,197)"/>
<path d="M0 0 C3.16115776 1.36983503 3.9927092 1.9890638 6 5 C4.125 5.625 4.125 5.625 2 6 C1.34 5.34 0.68 4.68 0 4 C0 2.68 0 1.36 0 0 Z " fill="#188DE4" transform="translate(165,200)"/>
<path d="M0 0 C0.66 0 1.32 0 2 0 C2.33 2.64 2.66 5.28 3 8 C2.01 8.495 2.01 8.495 1 9 C-0.4783226 6.04335481 -0.06032783 3.25770263 0 0 Z " fill="#4725F6" transform="translate(463,191)"/>
<path d="M0 0 C0.97608217 2.92824652 1.08226668 4.95613276 1 8 C0.01 7.67 -0.98 7.34 -2 7 C-2.99 7.495 -2.99 7.495 -4 8 C-2.87548273 5.0280615 -1.77706209 2.66559313 0 0 Z " fill="#4025DE" transform="translate(586,172)"/>
<path d="M0 0 C2.23551759 3.35327639 2.17283528 3.90743657 1.625 7.6875 C1.51414063 8.49574219 1.40328125 9.30398437 1.2890625 10.13671875 C1.19367188 10.75160156 1.09828125 11.36648437 1 12 C0.67 12 0.34 12 0 12 C-0.19573608 10.56359829 -0.38127816 9.12580496 -0.5625 7.6875 C-0.66691406 6.88699219 -0.77132812 6.08648437 -0.87890625 5.26171875 C-1 3 -1 3 0 0 Z " fill="#0A4EE7" transform="translate(231,168)"/>
<path d="M0 0 C0.33 0.66 0.66 1.32 1 2 C-0.2739589 4.03833424 -1.61061923 6.03852126 -3 8 C-3.66 8 -4.32 8 -5 8 C-5 8.66 -5 9.32 -5 10 C-5.66 9.67 -6.32 9.34 -7 9 C-4.69 6.03 -2.38 3.06 0 0 Z " fill="#D3F2FA" transform="translate(230,235)"/>
<path d="M0 0 C1 4 1 4 0.0625 6.25 C-0.4634375 7.11625 -0.4634375 7.11625 -1 8 C-0.34 8.33 0.32 8.66 1 9 C-0.98 9.66 -2.96 10.32 -5 11 C-3.35 7.37 -1.7 3.74 0 0 Z " fill="#2891DF" transform="translate(225,215)"/>
<path d="M0 0 C0.66 0.33 1.32 0.66 2 1 C0.68 3.31 -0.64 5.62 -2 8 C-3.5 6.625 -3.5 6.625 -5 5 C-5 4.34 -5 3.68 -5 3 C-3.35 2.67 -1.7 2.34 0 2 C0 1.34 0 0.68 0 0 Z " fill="#E5E2F9" transform="translate(582,175)"/>
<path d="M0 0 C0.99 0.33 1.98 0.66 3 1 C3.6875 3.0625 3.6875 3.0625 4 5 C3.01 5.66 2.02 6.32 1 7 C1.33 5.68 1.66 4.36 2 3 C0.68 3.33 -0.64 3.66 -2 4 C-1.34 2.68 -0.68 1.36 0 0 Z " fill="#4625DF" transform="translate(370,173)"/>
<path d="M0 0 C0.66 0.99 1.32 1.98 2 3 C1.19185349 4.33597652 0.37836819 5.668725 -0.4375 7 C-1.11619141 8.11375 -1.11619141 8.11375 -1.80859375 9.25 C-2.20175781 9.8275 -2.59492187 10.405 -3 11 C-3.33 11 -3.66 11 -4 11 C-4 9.35 -4 7.7 -4 6 C-3.34 5.67 -2.68 5.34 -2 5 C-1.27840576 3.35636866 -0.60648579 1.68949614 0 0 Z " fill="#4B34E3" transform="translate(603,165)"/>
<path d="M0 0 C0.99 0.33 1.98 0.66 3 1 C1.02 1.99 1.02 1.99 -1 3 C-1 4.98 -1 6.96 -1 9 C-1.66 9 -2.32 9 -3 9 C-2.25 2.25 -2.25 2.25 0 0 Z " fill="#4626F7" transform="translate(533,141)"/>
<path d="M0 0 C0.66 0.33 1.32 0.66 2 1 C-1.32307692 5.8 -1.32307692 5.8 -4.75 6.8125 C-5.4925 6.874375 -6.235 6.93625 -7 7 C-4.66666667 4.66666667 -2.33333333 2.33333333 0 0 Z " fill="#D9E5F8" transform="translate(122,131)"/>
<path d="M0 0 C4.38889325 0.66498383 7.9811485 2.18757677 12 4 C9.5332355 4.88336837 8.36140628 5.1312406 5.859375 4.22265625 C5.16328125 3.83980469 4.4671875 3.45695312 3.75 3.0625 C3.04359375 2.68222656 2.3371875 2.30195313 1.609375 1.91015625 C1.07828125 1.60980469 0.5471875 1.30945313 0 1 C0 0.67 0 0.34 0 0 Z " fill="#31BCD4" transform="translate(123,261)"/>
<path d="M0 0 C0.66 0.33 1.32 0.66 2 1 C-2.75 5.875 -2.75 5.875 -5 7 C-5.66 6.34 -6.32 5.68 -7 5 C-4.69 3.35 -2.38 1.7 0 0 Z " fill="#D6F3FA" transform="translate(117,232)"/>
<path d="M0 0 C2 3 2 3 1.625 5.6875 C1.41875 6.450625 1.2125 7.21375 1 8 C-0.32 8.33 -1.64 8.66 -3 9 C-2.01 6.03 -1.02 3.06 0 0 Z " fill="#E6E4F6" transform="translate(409,205)"/>
<path d="M0 0 C1.98 1.65 3.96 3.3 6 5 C3.92446352 5.5534764 2.15634036 6 0 6 C0 4.02 0 2.04 0 0 Z " fill="#0D5DE7" transform="translate(159,158)"/>
<path d="M0 0 C0.66 0 1.32 0 2 0 C2 0.66 2 1.32 2 2 C1.01 2.66 0.02 3.32 -1 4 C-2.19232613 6.05003955 -2.19232613 6.05003955 -3 8 C-3.99 7.67 -4.98 7.34 -6 7 C-6 6.34 -6 5.68 -6 5 C-5.34 5 -4.68 5 -4 5 C-3.34 4.175 -2.68 3.35 -2 2.5 C-1.34 1.675 -0.68 0.85 0 0 Z " fill="#065EFC" transform="translate(111,124)"/>
<path d="M0 0 C2.31 0 4.62 0 7 0 C4.14693203 2.32472205 1.45925163 3.7508258 -2 5 C-1.34 3.35 -0.68 1.7 0 0 Z " fill="#E0EBFB" transform="translate(122,111)"/>
<path d="M0 0 C0.66 0.99 1.32 1.98 2 3 C0.02 4.32 -1.96 5.64 -4 7 C-4.33 6.34 -4.66 5.68 -5 5 C-4.34 4.67 -3.68 4.34 -3 4 C-2.67 3.01 -2.34 2.02 -2 1 C-1.34 0.67 -0.68 0.34 0 0 Z " fill="#1EB3DC" transform="translate(207,254)"/>
<path d="M0 0 C0.6875 1.6875 0.6875 1.6875 1 4 C-0.3125 6.75 -0.3125 6.75 -2 9 C-2.66 9 -3.32 9 -4 9 C-2.80100302 5.9168649 -1.52299523 2.93720508 0 0 Z " fill="#D3EDFB" transform="translate(236,224)"/>
<path d="M0 0 C0.33 0.66 0.66 1.32 1 2 C0.00390625 3.9453125 0.00390625 3.9453125 -1.4375 6.125 C-1.91058594 6.84945312 -2.38367188 7.57390625 -2.87109375 8.3203125 C-3.24363281 8.87460938 -3.61617187 9.42890625 -4 10 C-4.65234375 8.203125 -4.65234375 8.203125 -5 6 C-3.63510623 3.66629928 -1.8580962 1.99405446 0 0 Z " fill="#402ADB" transform="translate(574,208)"/>
<path d="M0 0 C1.32 0.66 2.64 1.32 4 2 C3.67 2.66 3.34 3.32 3 4 C3.99 4.33 4.98 4.66 6 5 C4.1875 5.6875 4.1875 5.6875 2 6 C0.25 4.5625 0.25 4.5625 -1 3 C-0.67 2.01 -0.34 1.02 0 0 Z " fill="#512CEA" transform="translate(510,163)"/>
<path d="M0 0 C0.33 0 0.66 0 1 0 C0.979375 1.11375 0.95875 2.2275 0.9375 3.375 C0.73619282 6.83215921 0.73619282 6.83215921 2 9 C1.01 9.99 0.02 10.98 -1 12 C-1.08159574 7.83861737 -0.98248524 4.0527516 0 0 Z " fill="#EFEFF8" transform="translate(435,159)"/>
<path d="M0 0 C-0.625 1.9375 -0.625 1.9375 -2 4 C-5.125 4.75 -5.125 4.75 -8 5 C-3.22727273 0 -3.22727273 0 0 0 Z " fill="#DBE7FA" transform="translate(132,126)"/>
<path d="M0 0 C-1.32 0.99 -2.64 1.98 -4 3 C-5.32 2.34 -6.64 1.68 -8 1 C-4.93251126 -0.86240388 -3.40254489 -1.2151946 0 0 Z " fill="#DFF7F9" transform="translate(209,260)"/>
<path d="M0 0 C0.78375 0.04125 1.5675 0.0825 2.375 0.125 C0.89 2.105 0.89 2.105 -0.625 4.125 C-1.945 3.465 -3.265 2.805 -4.625 2.125 C-2.625 0.125 -2.625 0.125 0 0 Z " fill="#EAE8F6" transform="translate(390.625,206.875)"/>
<path d="M0 0 C1.65 1.65 3.3 3.3 5 5 C3.35 5 1.7 5 0 5 C-0.33 4.01 -0.66 3.02 -1 2 C-0.67 1.34 -0.34 0.68 0 0 Z " fill="#EEF7F8" transform="translate(172,190)"/>
</svg>
